<?xml version="1.0" encoding="UTF-8" standalone="no"?>
<!DOCTYPE svg PUBLIC "-//W3C//DTD SVG 1.1//EN"
 "http://www.w3.org/Graphics/SVG/1.1/DTD/svg11.dtd">
<!-- Generated by graphviz version 2.43.0 (0)
 -->
<!-- Title: G Pages: 1 -->
<svg width="350pt" height="692pt"
 viewBox="0.00 0.00 350.00 692.00" xmlns="http://www.w3.org/2000/svg" xmlns:xlink="http://www.w3.org/1999/xlink">
<g id="graph0" class="graph" transform="scale(1 1) rotate(0) translate(4 688)">
<title>G</title>
<polygon fill="white" stroke="transparent" points="-4,4 -4,-688 346,-688 346,4 -4,4"/>
<!-- 0 -->
<g id="node1" class="node">
<title>0</title>
<polygon fill="#87ceeb" stroke="black" points="36,-684 0,-684 0,-648 36,-648 36,-684"/>
<text text-anchor="middle" x="18" y="-662.3" font-family="Times,serif" font-size="14.00">I0</text>
</g>
<!-- 14 -->
<g id="node6" class="node">
<title>14</title>
<polygon fill="#87ceeb" stroke="red" points="77,-576 41,-576 41,-540 77,-540 77,-576"/>
<text text-anchor="middle" x="59" y="-554.3" font-family="Times,serif" font-size="14.00">~</text>
</g>
<!-- 0&#45;&gt;14 -->
<g id="edge2" class="edge">
<title>0&#45;&gt;14</title>
<path fill="none" stroke="black" d="M36.1,-666C47.09,-666 59,-666 59,-666 59,-666 59,-586.32 59,-586.32"/>
<polygon fill="black" stroke="black" points="62.5,-586.32 59,-576.32 55.5,-586.32 62.5,-586.32"/>
</g>
<!-- 13 -->
<g id="node12" class="node">
<title>13</title>
<polygon fill="#87ceeb" stroke="black" points="164,-144 128,-144 128,-108 164,-108 164,-144"/>
<text text-anchor="middle" x="146" y="-122.3" font-family="Times,serif" font-size="14.00">&amp;</text>
</g>
<!-- 0&#45;&gt;13 -->
<g id="edge1" class="edge">
<title>0&#45;&gt;13</title>
<path fill="none" stroke="black" d="M18,-647.72C18,-553.4 18,-126 18,-126 18,-126 117.93,-126 117.93,-126"/>
<polygon fill="black" stroke="black" points="117.93,-129.5 127.93,-126 117.93,-122.5 117.93,-129.5"/>
</g>
<!-- 1 -->
<g id="node2" class="node">
<title>1</title>
<polygon fill="#87ceeb" stroke="black" points="222,-684 186,-684 186,-648 222,-648 222,-684"/>
<text text-anchor="middle" x="204" y="-662.3" font-family="Times,serif" font-size="14.00">I1</text>
</g>
<!-- 4 -->
<g id="node4" class="node">
<title>4</title>
<polygon fill="#87ceeb" stroke="red" points="243,-576 207,-576 207,-540 243,-540 243,-576"/>
<text text-anchor="middle" x="225" y="-554.3" font-family="Times,serif" font-size="14.00">~</text>
</g>
<!-- 1&#45;&gt;4 -->
<g id="edge3" class="edge">
<title>1&#45;&gt;4</title>
<path fill="none" stroke="black" d="M214.5,-647.68C214.5,-647.68 214.5,-586.05 214.5,-586.05"/>
<polygon fill="black" stroke="black" points="218,-586.05 214.5,-576.05 211,-586.05 218,-586.05"/>
</g>
<!-- 9 -->
<g id="node8" class="node">
<title>9</title>
<polygon fill="#87ceeb" stroke="black" points="164,-468 128,-468 128,-432 164,-432 164,-468"/>
<text text-anchor="middle" x="146" y="-446.3" font-family="Times,serif" font-size="14.00">&amp;</text>
</g>
<!-- 1&#45;&gt;9 -->
<g id="edge4" class="edge">
<title>1&#45;&gt;9</title>
<path fill="none" stroke="black" d="M196.5,-647.96C196.5,-596.04 196.5,-450 196.5,-450 196.5,-450 174.23,-450 174.23,-450"/>
<polygon fill="black" stroke="black" points="174.23,-446.5 164.23,-450 174.23,-453.5 174.23,-446.5"/>
</g>
<!-- 2 -->
<g id="node3" class="node">
<title>2</title>
<polygon fill="#87ceeb" stroke="black" points="342,-684 306,-684 306,-648 342,-648 342,-684"/>
<text text-anchor="middle" x="324" y="-662.3" font-family="Times,serif" font-size="14.00">I2</text>
</g>
<!-- 7 -->
<g id="node5" class="node">
<title>7</title>
<polygon fill="#87ceeb" stroke="red" points="322,-576 286,-576 286,-540 322,-540 322,-576"/>
<text text-anchor="middle" x="304" y="-554.3" font-family="Times,serif" font-size="14.00">~</text>
</g>
<!-- 2&#45;&gt;7 -->
<g id="edge6" class="edge">
<title>2&#45;&gt;7</title>
<path fill="none" stroke="black" d="M314,-647.68C314,-647.68 314,-586.05 314,-586.05"/>
<polygon fill="black" stroke="black" points="317.5,-586.05 314,-576.05 310.5,-586.05 317.5,-586.05"/>
</g>
<!-- 6 -->
<g id="node7" class="node">
<title>6</title>
<polygon fill="#87ceeb" stroke="black" points="243,-468 207,-468 207,-432 243,-432 243,-468"/>
<text text-anchor="middle" x="225" y="-446.3" font-family="Times,serif" font-size="14.00">&amp;</text>
</g>
<!-- 2&#45;&gt;6 -->
<g id="edge5" class="edge">
<title>2&#45;&gt;6</title>
<path fill="none" stroke="black" d="M332,-647.96C332,-596.04 332,-450 332,-450 332,-450 253.15,-450 253.15,-450"/>
<polygon fill="black" stroke="black" points="253.15,-446.5 243.15,-450 253.15,-453.5 253.15,-446.5"/>
</g>
<!-- 4&#45;&gt;6 -->
<g id="edge7" class="edge">
<title>4&#45;&gt;6</title>
<path fill="none" stroke="black" d="M225,-539.68C225,-539.68 225,-478.05 225,-478.05"/>
<polygon fill="black" stroke="black" points="228.5,-478.05 225,-468.05 221.5,-478.05 228.5,-478.05"/>
</g>
<!-- 7&#45;&gt;9 -->
<g id="edge9" class="edge">
<title>7&#45;&gt;9</title>
<path fill="none" stroke="black" d="M304,-539.72C304,-524.05 304,-504 304,-504 304,-504 146,-504 146,-504 146,-504 146,-478.28 146,-478.28"/>
<polygon fill="black" stroke="black" points="149.5,-478.28 146,-468.28 142.5,-478.28 149.5,-478.28"/>
</g>
<!-- 16 -->
<g id="node11" class="node">
<title>16</title>
<polygon fill="#87ceeb" stroke="black" points="81,-252 45,-252 45,-216 81,-216 81,-252"/>
<text text-anchor="middle" x="63" y="-230.3" font-family="Times,serif" font-size="14.00">&amp;</text>
</g>
<!-- 14&#45;&gt;16 -->
<g id="edge15" class="edge">
<title>14&#45;&gt;16</title>
<path fill="none" stroke="black" d="M55.67,-539.65C55.67,-539.65 55.67,-262.15 55.67,-262.15"/>
<polygon fill="black" stroke="black" points="59.17,-262.15 55.67,-252.15 52.17,-262.15 59.17,-262.15"/>
</g>
<!-- 10 -->
<g id="node9" class="node">
<title>10</title>
<polygon fill="#87ceeb" stroke="black" points="164,-360 128,-360 128,-324 164,-324 164,-360"/>
<text text-anchor="middle" x="146" y="-338.3" font-family="Times,serif" font-size="14.00">|</text>
</g>
<!-- 6&#45;&gt;10 -->
<g id="edge8" class="edge">
<title>6&#45;&gt;10</title>
<path fill="none" stroke="black" d="M225,-431.68C225,-400.87 225,-342 225,-342 225,-342 174.32,-342 174.32,-342"/>
<polygon fill="black" stroke="black" points="174.32,-338.5 164.32,-342 174.32,-345.5 174.32,-338.5"/>
</g>
<!-- 9&#45;&gt;10 -->
<g id="edge10" class="edge">
<title>9&#45;&gt;10</title>
<path fill="none" stroke="black" d="M146,-431.68C146,-431.68 146,-370.05 146,-370.05"/>
<polygon fill="black" stroke="black" points="149.5,-370.05 146,-360.05 142.5,-370.05 149.5,-370.05"/>
</g>
<!-- 11 -->
<g id="node10" class="node">
<title>11</title>
<polygon fill="#87ceeb" stroke="red" points="164,-252 128,-252 128,-216 164,-216 164,-252"/>
<text text-anchor="middle" x="146" y="-230.3" font-family="Times,serif" font-size="14.00">~</text>
</g>
<!-- 10&#45;&gt;11 -->
<g id="edge11" class="edge">
<title>10&#45;&gt;11</title>
<path fill="none" stroke="black" d="M146,-323.68C146,-323.68 146,-262.05 146,-262.05"/>
<polygon fill="black" stroke="black" points="149.5,-262.05 146,-252.05 142.5,-262.05 149.5,-262.05"/>
</g>
<!-- 10&#45;&gt;16 -->
<g id="edge12" class="edge">
<title>10&#45;&gt;16</title>
<path fill="none" stroke="black" d="M127.92,-342C104.42,-342 66.33,-342 66.33,-342 66.33,-342 66.33,-262.32 66.33,-262.32"/>
<polygon fill="black" stroke="black" points="69.83,-262.32 66.33,-252.32 62.83,-262.32 69.83,-262.32"/>
</g>
<!-- 11&#45;&gt;13 -->
<g id="edge13" class="edge">
<title>11&#45;&gt;13</title>
<path fill="none" stroke="black" d="M146,-215.68C146,-215.68 146,-154.05 146,-154.05"/>
<polygon fill="black" stroke="black" points="149.5,-154.05 146,-144.05 142.5,-154.05 149.5,-154.05"/>
</g>
<!-- 3 -->
<g id="node13" class="node">
<title>3</title>
<polygon fill="#87ceeb" stroke="black" points="122,-36 86,-36 86,0 122,0 122,-36"/>
<text text-anchor="middle" x="104" y="-14.3" font-family="Times,serif" font-size="14.00">|</text>
</g>
<!-- 16&#45;&gt;3 -->
<g id="edge16" class="edge">
<title>16&#45;&gt;3</title>
<path fill="none" stroke="black" d="M81.1,-234C92.09,-234 104,-234 104,-234 104,-234 104,-46.04 104,-46.04"/>
<polygon fill="black" stroke="black" points="107.5,-46.04 104,-36.04 100.5,-46.04 107.5,-46.04"/>
</g>
<!-- 13&#45;&gt;3 -->
<g id="edge14" class="edge">
<title>13&#45;&gt;3</title>
<path fill="none" stroke="black" d="M146,-107.68C146,-76.87 146,-18 146,-18 146,-18 132.06,-18 132.06,-18"/>
<polygon fill="black" stroke="black" points="132.06,-14.5 122.06,-18 132.06,-21.5 132.06,-14.5"/>
</g>
</g>
</svg>
