<?xml version="1.0" encoding="UTF-8" standalone="no"?>
<!DOCTYPE svg PUBLIC "-//W3C//DTD SVG 1.1//EN"
 "http://www.w3.org/Graphics/SVG/1.1/DTD/svg11.dtd">
<!-- Generated by graphviz version 2.43.0 (0)
 -->
<!-- Title: G Pages: 1 -->
<svg width="125pt" height="368pt"
 viewBox="0.00 0.00 125.00 368.00" xmlns="http://www.w3.org/2000/svg" xmlns:xlink="http://www.w3.org/1999/xlink">
<g id="graph0" class="graph" transform="scale(1 1) rotate(0) translate(4 364)">
<title>G</title>
<polygon fill="white" stroke="transparent" points="-4,4 -4,-364 121,-364 121,4 -4,4"/>
<!-- 0 -->
<g id="node1" class="node">
<title>0</title>
<polygon fill="#87ceeb" stroke="black" points="36,-360 0,-360 0,-324 36,-324 36,-360"/>
<text text-anchor="middle" x="18" y="-338.3" font-family="Times,serif" font-size="14.00">I0</text>
</g>
<!-- 3 -->
<g id="node3" class="node">
<title>3</title>
<polygon fill="#87ceeb" stroke="black" points="115,-252 79,-252 79,-216 115,-216 115,-252"/>
<text text-anchor="middle" x="97" y="-230.3" font-family="Times,serif" font-size="14.00">&amp;</text>
</g>
<!-- 0&#45;&gt;3 -->
<g id="edge1" class="edge">
<title>0&#45;&gt;3</title>
<path fill="none" stroke="black" d="M27,-323.97C27,-304.42 27,-276 27,-276 27,-276 97,-276 97,-276 97,-276 97,-262.06 97,-262.06"/>
<polygon fill="black" stroke="black" points="100.5,-262.06 97,-252.06 93.5,-262.06 100.5,-262.06"/>
</g>
<!-- 4 -->
<g id="node4" class="node">
<title>4</title>
<polygon fill="#87ceeb" stroke="black" points="36,-252 0,-252 0,-216 36,-216 36,-252"/>
<text text-anchor="middle" x="18" y="-230.3" font-family="Times,serif" font-size="14.00">|</text>
</g>
<!-- 0&#45;&gt;4 -->
<g id="edge2" class="edge">
<title>0&#45;&gt;4</title>
<path fill="none" stroke="black" d="M9,-323.68C9,-323.68 9,-262.05 9,-262.05"/>
<polygon fill="black" stroke="black" points="12.5,-262.05 9,-252.05 5.5,-262.05 12.5,-262.05"/>
</g>
<!-- 1 -->
<g id="node2" class="node">
<title>1</title>
<polygon fill="#87ceeb" stroke="black" points="115,-360 79,-360 79,-324 115,-324 115,-360"/>
<text text-anchor="middle" x="97" y="-338.3" font-family="Times,serif" font-size="14.00">I1</text>
</g>
<!-- 1&#45;&gt;3 -->
<g id="edge3" class="edge">
<title>1&#45;&gt;3</title>
<path fill="none" stroke="black" d="M106,-323.68C106,-323.68 106,-262.05 106,-262.05"/>
<polygon fill="black" stroke="black" points="109.5,-262.05 106,-252.05 102.5,-262.05 109.5,-262.05"/>
</g>
<!-- 1&#45;&gt;4 -->
<g id="edge4" class="edge">
<title>1&#45;&gt;4</title>
<path fill="none" stroke="black" d="M88,-323.94C88,-312.56 88,-300 88,-300 88,-300 18,-300 18,-300 18,-300 18,-262.03 18,-262.03"/>
<polygon fill="black" stroke="black" points="21.5,-262.03 18,-252.03 14.5,-262.03 21.5,-262.03"/>
</g>
<!-- 5 -->
<g id="node5" class="node">
<title>5</title>
<polygon fill="#87ceeb" stroke="red" points="117,-144 81,-144 81,-108 117,-108 117,-144"/>
<text text-anchor="middle" x="99" y="-122.3" font-family="Times,serif" font-size="14.00">~</text>
</g>
<!-- 3&#45;&gt;5 -->
<g id="edge5" class="edge">
<title>3&#45;&gt;5</title>
<path fill="none" stroke="black" d="M98,-215.68C98,-215.68 98,-154.05 98,-154.05"/>
<polygon fill="black" stroke="black" points="101.5,-154.05 98,-144.05 94.5,-154.05 101.5,-154.05"/>
</g>
<!-- 2 -->
<g id="node6" class="node">
<title>2</title>
<polygon fill="#87ceeb" stroke="black" points="75,-36 39,-36 39,0 75,0 75,-36"/>
<text text-anchor="middle" x="57" y="-14.3" font-family="Times,serif" font-size="14.00">&amp;</text>
</g>
<!-- 4&#45;&gt;2 -->
<g id="edge6" class="edge">
<title>4&#45;&gt;2</title>
<path fill="none" stroke="black" d="M18,-215.96C18,-164.04 18,-18 18,-18 18,-18 28.87,-18 28.87,-18"/>
<polygon fill="black" stroke="black" points="28.87,-21.5 38.87,-18 28.87,-14.5 28.87,-21.5"/>
</g>
<!-- 5&#45;&gt;2 -->
<g id="edge7" class="edge">
<title>5&#45;&gt;2</title>
<path fill="none" stroke="black" d="M99,-107.68C99,-76.87 99,-18 99,-18 99,-18 85.06,-18 85.06,-18"/>
<polygon fill="black" stroke="black" points="85.06,-14.5 75.06,-18 85.06,-21.5 85.06,-14.5"/>
</g>
</g>
</svg>
