<?xml version="1.0" encoding="UTF-8" standalone="no"?>
<!DOCTYPE svg PUBLIC "-//W3C//DTD SVG 1.1//EN"
 "http://www.w3.org/Graphics/SVG/1.1/DTD/svg11.dtd">
<!-- Generated by graphviz version 2.43.0 (0)
 -->
<!-- Title: G Pages: 1 -->
<svg width="710pt" height="1232pt"
 viewBox="0.00 0.00 710.00 1232.00" xmlns="http://www.w3.org/2000/svg" xmlns:xlink="http://www.w3.org/1999/xlink">
<g id="graph0" class="graph" transform="scale(1 1) rotate(0) translate(4 1228)">
<title>G</title>
<polygon fill="white" stroke="transparent" points="-4,4 -4,-1228 706,-1228 706,4 -4,4"/>
<!-- 0 -->
<g id="node1" class="node">
<title>0</title>
<polygon fill="#87ceeb" stroke="black" points="79,-1224 43,-1224 43,-1188 79,-1188 79,-1224"/>
<text text-anchor="middle" x="61" y="-1202.3" font-family="Times,serif" font-size="14.00">I0</text>
</g>
<!-- 22 -->
<g id="node10" class="node">
<title>22</title>
<polygon fill="#87ceeb" stroke="red" points="36,-1116 0,-1116 0,-1080 36,-1080 36,-1116"/>
<text text-anchor="middle" x="18" y="-1094.3" font-family="Times,serif" font-size="14.00">~</text>
</g>
<!-- 0&#45;&gt;22 -->
<g id="edge2" class="edge">
<title>0&#45;&gt;22</title>
<path fill="none" stroke="black" d="M56,-1187.68C56,-1156.87 56,-1098 56,-1098 56,-1098 46.11,-1098 46.11,-1098"/>
<polygon fill="black" stroke="black" points="46.11,-1094.5 36.11,-1098 46.11,-1101.5 46.11,-1094.5"/>
</g>
<!-- 21 -->
<g id="node24" class="node">
<title>21</title>
<polygon fill="#87ceeb" stroke="black" points="243,-576 207,-576 207,-540 243,-540 243,-576"/>
<text text-anchor="middle" x="225" y="-554.3" font-family="Times,serif" font-size="14.00">&amp;</text>
</g>
<!-- 0&#45;&gt;21 -->
<g id="edge1" class="edge">
<title>0&#45;&gt;21</title>
<path fill="none" stroke="black" d="M74,-1187.99C74,-1083.34 74,-558 74,-558 74,-558 196.79,-558 196.79,-558"/>
<polygon fill="black" stroke="black" points="196.79,-561.5 206.79,-558 196.79,-554.5 196.79,-561.5"/>
</g>
<!-- 1 -->
<g id="node2" class="node">
<title>1</title>
<polygon fill="#87ceeb" stroke="black" points="454,-1224 418,-1224 418,-1188 454,-1188 454,-1224"/>
<text text-anchor="middle" x="436" y="-1202.3" font-family="Times,serif" font-size="14.00">I1</text>
</g>
<!-- 13 -->
<g id="node8" class="node">
<title>13</title>
<polygon fill="#87ceeb" stroke="red" points="456,-1116 420,-1116 420,-1080 456,-1080 456,-1116"/>
<text text-anchor="middle" x="438" y="-1094.3" font-family="Times,serif" font-size="14.00">~</text>
</g>
<!-- 1&#45;&gt;13 -->
<g id="edge3" class="edge">
<title>1&#45;&gt;13</title>
<path fill="none" stroke="black" d="M437,-1187.68C437,-1187.68 437,-1126.05 437,-1126.05"/>
<polygon fill="black" stroke="black" points="440.5,-1126.05 437,-1116.05 433.5,-1126.05 440.5,-1126.05"/>
</g>
<!-- 16 -->
<g id="node14" class="node">
<title>16</title>
<polygon fill="#87ceeb" stroke="black" points="243,-1008 207,-1008 207,-972 243,-972 243,-1008"/>
<text text-anchor="middle" x="225" y="-986.3" font-family="Times,serif" font-size="14.00">&amp;</text>
</g>
<!-- 1&#45;&gt;16 -->
<g id="edge4" class="edge">
<title>1&#45;&gt;16</title>
<path fill="none" stroke="black" d="M417.59,-1206C385.92,-1206 324.5,-1206 324.5,-1206 324.5,-1206 324.5,-984 324.5,-984 324.5,-984 253.25,-984 253.25,-984"/>
<polygon fill="black" stroke="black" points="253.25,-980.5 243.25,-984 253.25,-987.5 253.25,-980.5"/>
</g>
<!-- 2 -->
<g id="node3" class="node">
<title>2</title>
<polygon fill="#87ceeb" stroke="black" points="288,-1224 252,-1224 252,-1188 288,-1188 288,-1224"/>
<text text-anchor="middle" x="270" y="-1202.3" font-family="Times,serif" font-size="14.00">I2</text>
</g>
<!-- 15 -->
<g id="node9" class="node">
<title>15</title>
<polygon fill="#87ceeb" stroke="red" points="203,-1116 167,-1116 167,-1080 203,-1080 203,-1116"/>
<text text-anchor="middle" x="185" y="-1094.3" font-family="Times,serif" font-size="14.00">~</text>
</g>
<!-- 2&#45;&gt;15 -->
<g id="edge6" class="edge">
<title>2&#45;&gt;15</title>
<path fill="none" stroke="black" d="M255.5,-1187.76C255.5,-1158.43 255.5,-1104 255.5,-1104 255.5,-1104 213.16,-1104 213.16,-1104"/>
<polygon fill="black" stroke="black" points="213.16,-1100.5 203.16,-1104 213.16,-1107.5 213.16,-1100.5"/>
</g>
<!-- 14 -->
<g id="node13" class="node">
<title>14</title>
<polygon fill="#87ceeb" stroke="black" points="373,-1008 337,-1008 337,-972 373,-972 373,-1008"/>
<text text-anchor="middle" x="355" y="-986.3" font-family="Times,serif" font-size="14.00">&amp;</text>
</g>
<!-- 2&#45;&gt;14 -->
<g id="edge5" class="edge">
<title>2&#45;&gt;14</title>
<path fill="none" stroke="black" d="M274,-1187.73C274,-1136.64 274,-996 274,-996 274,-996 326.62,-996 326.62,-996"/>
<polygon fill="black" stroke="black" points="326.62,-999.5 336.62,-996 326.62,-992.5 326.62,-999.5"/>
</g>
<!-- 3 -->
<g id="node4" class="node">
<title>3</title>
<polygon fill="#87ceeb" stroke="black" points="702,-1224 666,-1224 666,-1188 702,-1188 702,-1224"/>
<text text-anchor="middle" x="684" y="-1202.3" font-family="Times,serif" font-size="14.00">I3</text>
</g>
<!-- 6 -->
<g id="node6" class="node">
<title>6</title>
<polygon fill="#87ceeb" stroke="red" points="622,-1116 586,-1116 586,-1080 622,-1080 622,-1116"/>
<text text-anchor="middle" x="604" y="-1094.3" font-family="Times,serif" font-size="14.00">~</text>
</g>
<!-- 3&#45;&gt;6 -->
<g id="edge7" class="edge">
<title>3&#45;&gt;6</title>
<path fill="none" stroke="black" d="M665.84,-1206C661.58,-1206 658.25,-1206 658.25,-1206 658.25,-1206 658.25,-1104 658.25,-1104 658.25,-1104 632.06,-1104 632.06,-1104"/>
<polygon fill="black" stroke="black" points="632.06,-1100.5 622.06,-1104 632.06,-1107.5 632.06,-1100.5"/>
</g>
<!-- 9 -->
<g id="node12" class="node">
<title>9</title>
<polygon fill="#87ceeb" stroke="black" points="701,-1008 665,-1008 665,-972 701,-972 701,-1008"/>
<text text-anchor="middle" x="683" y="-986.3" font-family="Times,serif" font-size="14.00">&amp;</text>
</g>
<!-- 3&#45;&gt;9 -->
<g id="edge8" class="edge">
<title>3&#45;&gt;9</title>
<path fill="none" stroke="black" d="M665.95,-1197C662.79,-1197 660.5,-1197 660.5,-1197 660.5,-1197 660.5,-999 660.5,-999 660.5,-999 660.93,-999 660.93,-999"/>
<polygon fill="black" stroke="black" points="654.84,-1002.5 664.84,-999 654.84,-995.5 654.84,-1002.5"/>
</g>
<!-- 4 -->
<g id="node5" class="node">
<title>4</title>
<polygon fill="#87ceeb" stroke="black" points="621,-1224 585,-1224 585,-1188 621,-1188 621,-1224"/>
<text text-anchor="middle" x="603" y="-1202.3" font-family="Times,serif" font-size="14.00">I4</text>
</g>
<!-- 8 -->
<g id="node7" class="node">
<title>8</title>
<polygon fill="#87ceeb" stroke="red" points="701,-1116 665,-1116 665,-1080 701,-1080 701,-1116"/>
<text text-anchor="middle" x="683" y="-1094.3" font-family="Times,serif" font-size="14.00">~</text>
</g>
<!-- 4&#45;&gt;8 -->
<g id="edge10" class="edge">
<title>4&#45;&gt;8</title>
<path fill="none" stroke="black" d="M621.25,-1215C638.82,-1215 662.75,-1215 662.75,-1215 662.75,-1215 662.75,-1092 662.75,-1092 662.75,-1092 662.97,-1092 662.97,-1092"/>
<polygon fill="black" stroke="black" points="654.92,-1095.5 664.92,-1092 654.92,-1088.5 654.92,-1095.5"/>
</g>
<!-- 7 -->
<g id="node11" class="node">
<title>7</title>
<polygon fill="#87ceeb" stroke="black" points="539,-1008 503,-1008 503,-972 539,-972 539,-1008"/>
<text text-anchor="middle" x="521" y="-986.3" font-family="Times,serif" font-size="14.00">&amp;</text>
</g>
<!-- 4&#45;&gt;7 -->
<g id="edge9" class="edge">
<title>4&#45;&gt;7</title>
<path fill="none" stroke="black" d="M584.8,-1206C560.64,-1206 521,-1206 521,-1206 521,-1206 521,-1018.04 521,-1018.04"/>
<polygon fill="black" stroke="black" points="524.5,-1018.04 521,-1008.04 517.5,-1018.04 524.5,-1018.04"/>
</g>
<!-- 6&#45;&gt;7 -->
<g id="edge11" class="edge">
<title>6&#45;&gt;7</title>
<path fill="none" stroke="black" d="M603,-1079.68C603,-1048.87 603,-990 603,-990 603,-990 549.2,-990 549.2,-990"/>
<polygon fill="black" stroke="black" points="549.2,-986.5 539.2,-990 549.2,-993.5 549.2,-986.5"/>
</g>
<!-- 8&#45;&gt;9 -->
<g id="edge13" class="edge">
<title>8&#45;&gt;9</title>
<path fill="none" stroke="black" d="M683,-1079.68C683,-1079.68 683,-1018.05 683,-1018.05"/>
<polygon fill="black" stroke="black" points="686.5,-1018.05 683,-1008.05 679.5,-1018.05 686.5,-1018.05"/>
</g>
<!-- 13&#45;&gt;14 -->
<g id="edge19" class="edge">
<title>13&#45;&gt;14</title>
<path fill="none" stroke="black" d="M419.99,-1092C395.58,-1092 355,-1092 355,-1092 355,-1092 355,-1018.24 355,-1018.24"/>
<polygon fill="black" stroke="black" points="358.5,-1018.24 355,-1008.24 351.5,-1018.24 358.5,-1018.24"/>
</g>
<!-- 15&#45;&gt;16 -->
<g id="edge21" class="edge">
<title>15&#45;&gt;16</title>
<path fill="none" stroke="black" d="M185,-1079.68C185,-1048.87 185,-990 185,-990 185,-990 196.87,-990 196.87,-990"/>
<polygon fill="black" stroke="black" points="196.87,-993.5 206.87,-990 196.87,-986.5 196.87,-993.5"/>
</g>
<!-- 23 -->
<g id="node22" class="node">
<title>23</title>
<polygon fill="#87ceeb" stroke="black" points="38,-684 2,-684 2,-648 38,-648 38,-684"/>
<text text-anchor="middle" x="20" y="-662.3" font-family="Times,serif" font-size="14.00">&amp;</text>
</g>
<!-- 22&#45;&gt;23 -->
<g id="edge29" class="edge">
<title>22&#45;&gt;23</title>
<path fill="none" stroke="black" d="M13.33,-1079.99C13.33,-1079.99 13.33,-694.09 13.33,-694.09"/>
<polygon fill="black" stroke="black" points="16.83,-694.09 13.33,-684.09 9.83,-694.09 16.83,-694.09"/>
</g>
<!-- 10 -->
<g id="node15" class="node">
<title>10</title>
<polygon fill="#87ceeb" stroke="red" points="531,-900 495,-900 495,-864 531,-864 531,-900"/>
<text text-anchor="middle" x="513" y="-878.3" font-family="Times,serif" font-size="14.00">~</text>
</g>
<!-- 7&#45;&gt;10 -->
<g id="edge12" class="edge">
<title>7&#45;&gt;10</title>
<path fill="none" stroke="black" d="M517,-971.68C517,-971.68 517,-910.05 517,-910.05"/>
<polygon fill="black" stroke="black" points="520.5,-910.05 517,-900.05 513.5,-910.05 520.5,-910.05"/>
</g>
<!-- 11 -->
<g id="node16" class="node">
<title>11</title>
<polygon fill="#87ceeb" stroke="red" points="656,-900 620,-900 620,-864 656,-864 656,-900"/>
<text text-anchor="middle" x="638" y="-878.3" font-family="Times,serif" font-size="14.00">~</text>
</g>
<!-- 9&#45;&gt;11 -->
<g id="edge14" class="edge">
<title>9&#45;&gt;11</title>
<path fill="none" stroke="black" d="M664.85,-981C652.73,-981 639,-981 639,-981 639,-981 639,-910.16 639,-910.16"/>
<polygon fill="black" stroke="black" points="642.5,-910.16 639,-900.16 635.5,-910.16 642.5,-910.16"/>
</g>
<!-- 17 -->
<g id="node17" class="node">
<title>17</title>
<polygon fill="#87ceeb" stroke="red" points="348,-900 312,-900 312,-864 348,-864 348,-900"/>
<text text-anchor="middle" x="330" y="-878.3" font-family="Times,serif" font-size="14.00">~</text>
</g>
<!-- 14&#45;&gt;17 -->
<g id="edge20" class="edge">
<title>14&#45;&gt;17</title>
<path fill="none" stroke="black" d="M342.5,-971.68C342.5,-971.68 342.5,-910.05 342.5,-910.05"/>
<polygon fill="black" stroke="black" points="346,-910.05 342.5,-900.05 339,-910.05 346,-910.05"/>
</g>
<!-- 18 -->
<g id="node18" class="node">
<title>18</title>
<polygon fill="#87ceeb" stroke="red" points="243,-900 207,-900 207,-864 243,-864 243,-900"/>
<text text-anchor="middle" x="225" y="-878.3" font-family="Times,serif" font-size="14.00">~</text>
</g>
<!-- 16&#45;&gt;18 -->
<g id="edge22" class="edge">
<title>16&#45;&gt;18</title>
<path fill="none" stroke="black" d="M225,-971.68C225,-971.68 225,-910.05 225,-910.05"/>
<polygon fill="black" stroke="black" points="228.5,-910.05 225,-900.05 221.5,-910.05 228.5,-910.05"/>
</g>
<!-- 12 -->
<g id="node19" class="node">
<title>12</title>
<polygon fill="#87ceeb" stroke="black" points="527,-792 491,-792 491,-756 527,-756 527,-792"/>
<text text-anchor="middle" x="509" y="-770.3" font-family="Times,serif" font-size="14.00">&amp;</text>
</g>
<!-- 10&#45;&gt;12 -->
<g id="edge15" class="edge">
<title>10&#45;&gt;12</title>
<path fill="none" stroke="black" d="M511,-863.68C511,-863.68 511,-802.05 511,-802.05"/>
<polygon fill="black" stroke="black" points="514.5,-802.05 511,-792.05 507.5,-802.05 514.5,-802.05"/>
</g>
<!-- 11&#45;&gt;12 -->
<g id="edge16" class="edge">
<title>11&#45;&gt;12</title>
<path fill="none" stroke="black" d="M638,-863.68C638,-832.87 638,-774 638,-774 638,-774 537.21,-774 537.21,-774"/>
<polygon fill="black" stroke="black" points="537.21,-770.5 527.21,-774 537.21,-777.5 537.21,-770.5"/>
</g>
<!-- 19 -->
<g id="node20" class="node">
<title>19</title>
<polygon fill="#87ceeb" stroke="black" points="243,-792 207,-792 207,-756 243,-756 243,-792"/>
<text text-anchor="middle" x="225" y="-770.3" font-family="Times,serif" font-size="14.00">&amp;</text>
</g>
<!-- 17&#45;&gt;19 -->
<g id="edge23" class="edge">
<title>17&#45;&gt;19</title>
<path fill="none" stroke="black" d="M321.33,-863.76C321.33,-834.43 321.33,-780 321.33,-780 321.33,-780 253.12,-780 253.12,-780"/>
<polygon fill="black" stroke="black" points="253.12,-776.5 243.12,-780 253.12,-783.5 253.12,-776.5"/>
</g>
<!-- 18&#45;&gt;19 -->
<g id="edge24" class="edge">
<title>18&#45;&gt;19</title>
<path fill="none" stroke="black" d="M225,-863.68C225,-863.68 225,-802.05 225,-802.05"/>
<polygon fill="black" stroke="black" points="228.5,-802.05 225,-792.05 221.5,-802.05 228.5,-802.05"/>
</g>
<!-- 28 -->
<g id="node23" class="node">
<title>28</title>
<polygon fill="#87ceeb" stroke="red" points="523,-684 487,-684 487,-648 523,-648 523,-684"/>
<text text-anchor="middle" x="505" y="-662.3" font-family="Times,serif" font-size="14.00">~</text>
</g>
<!-- 12&#45;&gt;28 -->
<g id="edge18" class="edge">
<title>12&#45;&gt;28</title>
<path fill="none" stroke="black" d="M507,-755.68C507,-755.68 507,-694.05 507,-694.05"/>
<polygon fill="black" stroke="black" points="510.5,-694.05 507,-684.05 503.5,-694.05 510.5,-694.05"/>
</g>
<!-- 27 -->
<g id="node28" class="node">
<title>27</title>
<polygon fill="#87ceeb" stroke="black" points="340,-252 304,-252 304,-216 340,-216 340,-252"/>
<text text-anchor="middle" x="322" y="-230.3" font-family="Times,serif" font-size="14.00">&amp;</text>
</g>
<!-- 12&#45;&gt;27 -->
<g id="edge17" class="edge">
<title>12&#45;&gt;27</title>
<path fill="none" stroke="black" d="M490.92,-768C445.58,-768 330.67,-768 330.67,-768 330.67,-768 330.67,-262.07 330.67,-262.07"/>
<polygon fill="black" stroke="black" points="334.17,-262.07 330.67,-252.07 327.17,-262.07 334.17,-262.07"/>
</g>
<!-- 20 -->
<g id="node21" class="node">
<title>20</title>
<polygon fill="#87ceeb" stroke="red" points="243,-684 207,-684 207,-648 243,-648 243,-684"/>
<text text-anchor="middle" x="225" y="-662.3" font-family="Times,serif" font-size="14.00">~</text>
</g>
<!-- 19&#45;&gt;20 -->
<g id="edge25" class="edge">
<title>19&#45;&gt;20</title>
<path fill="none" stroke="black" d="M225,-755.68C225,-755.68 225,-694.05 225,-694.05"/>
<polygon fill="black" stroke="black" points="228.5,-694.05 225,-684.05 221.5,-694.05 228.5,-694.05"/>
</g>
<!-- 19&#45;&gt;23 -->
<g id="edge26" class="edge">
<title>19&#45;&gt;23</title>
<path fill="none" stroke="black" d="M206.87,-774C157.55,-774 24.67,-774 24.67,-774 24.67,-774 24.67,-694.32 24.67,-694.32"/>
<polygon fill="black" stroke="black" points="28.17,-694.32 24.67,-684.32 21.17,-694.32 28.17,-694.32"/>
</g>
<!-- 20&#45;&gt;21 -->
<g id="edge27" class="edge">
<title>20&#45;&gt;21</title>
<path fill="none" stroke="black" d="M225,-647.68C225,-647.68 225,-586.05 225,-586.05"/>
<polygon fill="black" stroke="black" points="228.5,-586.05 225,-576.05 221.5,-586.05 228.5,-586.05"/>
</g>
<!-- 25 -->
<g id="node25" class="node">
<title>25</title>
<polygon fill="#87ceeb" stroke="red" points="69,-576 33,-576 33,-540 69,-540 69,-576"/>
<text text-anchor="middle" x="51" y="-554.3" font-family="Times,serif" font-size="14.00">~</text>
</g>
<!-- 23&#45;&gt;25 -->
<g id="edge30" class="edge">
<title>23&#45;&gt;25</title>
<path fill="none" stroke="black" d="M17.5,-647.68C17.5,-616.87 17.5,-558 17.5,-558 17.5,-558 22.68,-558 22.68,-558"/>
<polygon fill="black" stroke="black" points="22.68,-561.5 32.68,-558 22.68,-554.5 22.68,-561.5"/>
</g>
<!-- 30 -->
<g id="node30" class="node">
<title>30</title>
<polygon fill="#87ceeb" stroke="black" points="423,-144 387,-144 387,-108 423,-108 423,-144"/>
<text text-anchor="middle" x="405" y="-122.3" font-family="Times,serif" font-size="14.00">&amp;</text>
</g>
<!-- 28&#45;&gt;30 -->
<g id="edge36" class="edge">
<title>28&#45;&gt;30</title>
<path fill="none" stroke="black" d="M505,-647.72C505,-553.4 505,-126 505,-126 505,-126 433.34,-126 433.34,-126"/>
<polygon fill="black" stroke="black" points="433.34,-122.5 423.34,-126 433.34,-129.5 433.34,-122.5"/>
</g>
<!-- 24 -->
<g id="node26" class="node">
<title>24</title>
<polygon fill="#87ceeb" stroke="red" points="243,-468 207,-468 207,-432 243,-432 243,-468"/>
<text text-anchor="middle" x="225" y="-446.3" font-family="Times,serif" font-size="14.00">~</text>
</g>
<!-- 21&#45;&gt;24 -->
<g id="edge28" class="edge">
<title>21&#45;&gt;24</title>
<path fill="none" stroke="black" d="M225,-539.68C225,-539.68 225,-478.05 225,-478.05"/>
<polygon fill="black" stroke="black" points="228.5,-478.05 225,-468.05 221.5,-478.05 228.5,-478.05"/>
</g>
<!-- 26 -->
<g id="node27" class="node">
<title>26</title>
<polygon fill="#87ceeb" stroke="black" points="259,-360 223,-360 223,-324 259,-324 259,-360"/>
<text text-anchor="middle" x="241" y="-338.3" font-family="Times,serif" font-size="14.00">&amp;</text>
</g>
<!-- 25&#45;&gt;26 -->
<g id="edge32" class="edge">
<title>25&#45;&gt;26</title>
<path fill="none" stroke="black" d="M51,-539.96C51,-488.04 51,-342 51,-342 51,-342 212.78,-342 212.78,-342"/>
<polygon fill="black" stroke="black" points="212.78,-345.5 222.78,-342 212.78,-338.5 212.78,-345.5"/>
</g>
<!-- 24&#45;&gt;26 -->
<g id="edge31" class="edge">
<title>24&#45;&gt;26</title>
<path fill="none" stroke="black" d="M233,-431.68C233,-431.68 233,-370.05 233,-370.05"/>
<polygon fill="black" stroke="black" points="236.5,-370.05 233,-360.05 229.5,-370.05 236.5,-370.05"/>
</g>
<!-- 26&#45;&gt;27 -->
<g id="edge33" class="edge">
<title>26&#45;&gt;27</title>
<path fill="none" stroke="black" d="M259.31,-342C279.15,-342 308,-342 308,-342 308,-342 308,-262.32 308,-262.32"/>
<polygon fill="black" stroke="black" points="311.5,-262.32 308,-252.32 304.5,-262.32 311.5,-262.32"/>
</g>
<!-- 29 -->
<g id="node29" class="node">
<title>29</title>
<polygon fill="#87ceeb" stroke="red" points="260,-252 224,-252 224,-216 260,-216 260,-252"/>
<text text-anchor="middle" x="242" y="-230.3" font-family="Times,serif" font-size="14.00">~</text>
</g>
<!-- 26&#45;&gt;29 -->
<g id="edge34" class="edge">
<title>26&#45;&gt;29</title>
<path fill="none" stroke="black" d="M241.5,-323.68C241.5,-323.68 241.5,-262.05 241.5,-262.05"/>
<polygon fill="black" stroke="black" points="245,-262.05 241.5,-252.05 238,-262.05 245,-262.05"/>
</g>
<!-- 5 -->
<g id="node31" class="node">
<title>5</title>
<polygon fill="#87ceeb" stroke="black" points="381,-36 345,-36 345,0 381,0 381,-36"/>
<text text-anchor="middle" x="363" y="-14.3" font-family="Times,serif" font-size="14.00">|</text>
</g>
<!-- 27&#45;&gt;5 -->
<g id="edge35" class="edge">
<title>27&#45;&gt;5</title>
<path fill="none" stroke="black" d="M340.35,-234C350.26,-234 360.5,-234 360.5,-234 360.5,-234 360.5,-46.04 360.5,-46.04"/>
<polygon fill="black" stroke="black" points="364,-46.04 360.5,-36.04 357,-46.04 364,-46.04"/>
</g>
<!-- 29&#45;&gt;30 -->
<g id="edge37" class="edge">
<title>29&#45;&gt;30</title>
<path fill="none" stroke="black" d="M242,-215.76C242,-186.43 242,-132 242,-132 242,-132 376.93,-132 376.93,-132"/>
<polygon fill="black" stroke="black" points="376.93,-135.5 386.93,-132 376.93,-128.5 376.93,-135.5"/>
</g>
<!-- 30&#45;&gt;5 -->
<g id="edge38" class="edge">
<title>30&#45;&gt;5</title>
<path fill="none" stroke="black" d="M386.79,-120C381.45,-120 377,-120 377,-120 377,-120 377,-46.24 377,-46.24"/>
<polygon fill="black" stroke="black" points="380.5,-46.24 377,-36.24 373.5,-46.24 380.5,-46.24"/>
</g>
</g>
</svg>
