<?xml version="1.0" encoding="UTF-8" standalone="no"?>
<!DOCTYPE svg PUBLIC "-//W3C//DTD SVG 1.1//EN"
 "http://www.w3.org/Graphics/SVG/1.1/DTD/svg11.dtd">
<!-- Generated by graphviz version 2.43.0 (0)
 -->
<!-- Title: G Pages: 1 -->
<svg width="1279pt" height="2528pt"
 viewBox="0.00 0.00 1279.00 2528.00" xmlns="http://www.w3.org/2000/svg" xmlns:xlink="http://www.w3.org/1999/xlink">
<g id="graph0" class="graph" transform="scale(1 1) rotate(0) translate(4 2524)">
<title>G</title>
<polygon fill="white" stroke="transparent" points="-4,4 -4,-2524 1275,-2524 1275,4 -4,4"/>
<!-- 0 -->
<g id="node1" class="node">
<title>0</title>
<polygon fill="#87ceeb" stroke="black" points="61,-2520 25,-2520 25,-2484 61,-2484 61,-2520"/>
<text text-anchor="middle" x="43" y="-2498.3" font-family="Times,serif" font-size="14.00">I0</text>
</g>
<!-- 35 -->
<g id="node9" class="node">
<title>35</title>
<polygon fill="#87ceeb" stroke="red" points="326,-2412 290,-2412 290,-2376 326,-2376 326,-2412"/>
<text text-anchor="middle" x="308" y="-2390.3" font-family="Times,serif" font-size="14.00">~</text>
</g>
<!-- 0&#45;&gt;35 -->
<g id="edge1" class="edge">
<title>0&#45;&gt;35</title>
<path fill="none" stroke="black" d="M54.33,-2483.97C54.33,-2464.42 54.33,-2436 54.33,-2436 54.33,-2436 308,-2436 308,-2436 308,-2436 308,-2422.06 308,-2422.06"/>
<polygon fill="black" stroke="black" points="311.5,-2422.06 308,-2412.06 304.5,-2422.06 311.5,-2422.06"/>
</g>
<!-- 63 -->
<g id="node11" class="node">
<title>63</title>
<polygon fill="#87ceeb" stroke="green" points="37,-2412 1,-2412 1,-2376 37,-2376 37,-2412"/>
<text text-anchor="middle" x="19" y="-2390.3" font-family="Times,serif" font-size="14.00">F</text>
</g>
<!-- 0&#45;&gt;63 -->
<g id="edge2" class="edge">
<title>0&#45;&gt;63</title>
<path fill="none" stroke="black" d="M31,-2483.68C31,-2483.68 31,-2422.05 31,-2422.05"/>
<polygon fill="black" stroke="black" points="34.5,-2422.05 31,-2412.05 27.5,-2422.05 34.5,-2422.05"/>
</g>
<!-- 1 -->
<g id="node2" class="node">
<title>1</title>
<polygon fill="#87ceeb" stroke="black" points="185,-2520 149,-2520 149,-2484 185,-2484 185,-2520"/>
<text text-anchor="middle" x="167" y="-2498.3" font-family="Times,serif" font-size="14.00">I1</text>
</g>
<!-- 37 -->
<g id="node10" class="node">
<title>37</title>
<polygon fill="#87ceeb" stroke="red" points="208,-2412 172,-2412 172,-2376 208,-2376 208,-2412"/>
<text text-anchor="middle" x="190" y="-2390.3" font-family="Times,serif" font-size="14.00">~</text>
</g>
<!-- 1&#45;&gt;37 -->
<g id="edge3" class="edge">
<title>1&#45;&gt;37</title>
<path fill="none" stroke="black" d="M178.5,-2483.68C178.5,-2483.68 178.5,-2422.05 178.5,-2422.05"/>
<polygon fill="black" stroke="black" points="182,-2422.05 178.5,-2412.05 175,-2422.05 182,-2422.05"/>
</g>
<!-- 64 -->
<g id="node12" class="node">
<title>64</title>
<polygon fill="#87ceeb" stroke="green" points="121,-2412 85,-2412 85,-2376 121,-2376 121,-2412"/>
<text text-anchor="middle" x="103" y="-2390.3" font-family="Times,serif" font-size="14.00">F</text>
</g>
<!-- 1&#45;&gt;64 -->
<g id="edge4" class="edge">
<title>1&#45;&gt;64</title>
<path fill="none" stroke="black" d="M164.33,-2483.76C164.33,-2454.43 164.33,-2400 164.33,-2400 164.33,-2400 131.07,-2400 131.07,-2400"/>
<polygon fill="black" stroke="black" points="131.07,-2396.5 121.07,-2400 131.07,-2403.5 131.07,-2396.5"/>
</g>
<!-- 2 -->
<g id="node3" class="node">
<title>2</title>
<polygon fill="#87ceeb" stroke="black" points="841,-2520 805,-2520 805,-2484 841,-2484 841,-2520"/>
<text text-anchor="middle" x="823" y="-2498.3" font-family="Times,serif" font-size="14.00">I2</text>
</g>
<!-- 6 -->
<g id="node6" class="node">
<title>6</title>
<polygon fill="#87ceeb" stroke="red" points="973,-2412 937,-2412 937,-2376 973,-2376 973,-2412"/>
<text text-anchor="middle" x="955" y="-2390.3" font-family="Times,serif" font-size="14.00">~</text>
</g>
<!-- 2&#45;&gt;6 -->
<g id="edge5" class="edge">
<title>2&#45;&gt;6</title>
<path fill="none" stroke="black" d="M841.08,-2496C877.23,-2496 955,-2496 955,-2496 955,-2496 955,-2422.24 955,-2422.24"/>
<polygon fill="black" stroke="black" points="958.5,-2422.24 955,-2412.24 951.5,-2422.24 958.5,-2422.24"/>
</g>
<!-- 65 -->
<g id="node13" class="node">
<title>65</title>
<polygon fill="#87ceeb" stroke="green" points="603,-2412 567,-2412 567,-2376 603,-2376 603,-2412"/>
<text text-anchor="middle" x="585" y="-2390.3" font-family="Times,serif" font-size="14.00">F</text>
</g>
<!-- 2&#45;&gt;65 -->
<g id="edge6" class="edge">
<title>2&#45;&gt;65</title>
<path fill="none" stroke="black" d="M804.72,-2502C748.99,-2502 585,-2502 585,-2502 585,-2502 585,-2422.32 585,-2422.32"/>
<polygon fill="black" stroke="black" points="588.5,-2422.32 585,-2412.32 581.5,-2422.32 588.5,-2422.32"/>
</g>
<!-- 3 -->
<g id="node4" class="node">
<title>3</title>
<polygon fill="#87ceeb" stroke="black" points="1188,-2520 1152,-2520 1152,-2484 1188,-2484 1188,-2520"/>
<text text-anchor="middle" x="1170" y="-2498.3" font-family="Times,serif" font-size="14.00">I3</text>
</g>
<!-- 7 -->
<g id="node7" class="node">
<title>7</title>
<polygon fill="#87ceeb" stroke="red" points="773,-2412 737,-2412 737,-2376 773,-2376 773,-2412"/>
<text text-anchor="middle" x="755" y="-2390.3" font-family="Times,serif" font-size="14.00">~</text>
</g>
<!-- 3&#45;&gt;7 -->
<g id="edge7" class="edge">
<title>3&#45;&gt;7</title>
<path fill="none" stroke="black" d="M1170,-2483.94C1170,-2472.56 1170,-2460 1170,-2460 1170,-2460 755,-2460 755,-2460 755,-2460 755,-2422.03 755,-2422.03"/>
<polygon fill="black" stroke="black" points="758.5,-2422.03 755,-2412.03 751.5,-2422.03 758.5,-2422.03"/>
</g>
<!-- 66 -->
<g id="node14" class="node">
<title>66</title>
<polygon fill="#87ceeb" stroke="green" points="1271,-2412 1235,-2412 1235,-2376 1271,-2376 1271,-2412"/>
<text text-anchor="middle" x="1253" y="-2390.3" font-family="Times,serif" font-size="14.00">F</text>
</g>
<!-- 3&#45;&gt;66 -->
<g id="edge8" class="edge">
<title>3&#45;&gt;66</title>
<path fill="none" stroke="black" d="M1188.01,-2502C1212.42,-2502 1253,-2502 1253,-2502 1253,-2502 1253,-2422.32 1253,-2422.32"/>
<polygon fill="black" stroke="black" points="1256.5,-2422.32 1253,-2412.32 1249.5,-2422.32 1256.5,-2422.32"/>
</g>
<!-- 4 -->
<g id="node5" class="node">
<title>4</title>
<polygon fill="#87ceeb" stroke="black" points="1026,-2520 990,-2520 990,-2484 1026,-2484 1026,-2520"/>
<text text-anchor="middle" x="1008" y="-2498.3" font-family="Times,serif" font-size="14.00">I4</text>
</g>
<!-- 9 -->
<g id="node8" class="node">
<title>9</title>
<polygon fill="#87ceeb" stroke="red" points="894,-2412 858,-2412 858,-2376 894,-2376 894,-2412"/>
<text text-anchor="middle" x="876" y="-2390.3" font-family="Times,serif" font-size="14.00">~</text>
</g>
<!-- 4&#45;&gt;9 -->
<g id="edge9" class="edge">
<title>4&#45;&gt;9</title>
<path fill="none" stroke="black" d="M989.92,-2508C953.77,-2508 876,-2508 876,-2508 876,-2508 876,-2422.06 876,-2422.06"/>
<polygon fill="black" stroke="black" points="879.5,-2422.06 876,-2412.06 872.5,-2422.06 879.5,-2422.06"/>
</g>
<!-- 67 -->
<g id="node15" class="node">
<title>67</title>
<polygon fill="#87ceeb" stroke="green" points="1188,-2412 1152,-2412 1152,-2376 1188,-2376 1188,-2412"/>
<text text-anchor="middle" x="1170" y="-2390.3" font-family="Times,serif" font-size="14.00">F</text>
</g>
<!-- 4&#45;&gt;67 -->
<g id="edge10" class="edge">
<title>4&#45;&gt;67</title>
<path fill="none" stroke="black" d="M1004,-2483.76C1004,-2454.43 1004,-2400 1004,-2400 1004,-2400 1141.92,-2400 1141.92,-2400"/>
<polygon fill="black" stroke="black" points="1141.92,-2403.5 1151.92,-2400 1141.92,-2396.5 1141.92,-2403.5"/>
</g>
<!-- 71 -->
<g id="node20" class="node">
<title>71</title>
<polygon fill="#87ceeb" stroke="green" points="1018,-2304 982,-2304 982,-2268 1018,-2268 1018,-2304"/>
<text text-anchor="middle" x="1000" y="-2282.3" font-family="Times,serif" font-size="14.00">F</text>
</g>
<!-- 6&#45;&gt;71 -->
<g id="edge11" class="edge">
<title>6&#45;&gt;71</title>
<path fill="none" stroke="black" d="M973.03,-2388C979.85,-2388 986,-2388 986,-2388 986,-2388 986,-2314.24 986,-2314.24"/>
<polygon fill="black" stroke="black" points="989.5,-2314.24 986,-2304.24 982.5,-2314.24 989.5,-2314.24"/>
</g>
<!-- 72 -->
<g id="node21" class="node">
<title>72</title>
<polygon fill="#87ceeb" stroke="green" points="852,-2304 816,-2304 816,-2268 852,-2268 852,-2304"/>
<text text-anchor="middle" x="834" y="-2282.3" font-family="Times,serif" font-size="14.00">F</text>
</g>
<!-- 6&#45;&gt;72 -->
<g id="edge12" class="edge">
<title>6&#45;&gt;72</title>
<path fill="none" stroke="black" d="M952.33,-2375.68C952.33,-2344.87 952.33,-2286 952.33,-2286 952.33,-2286 862.23,-2286 862.23,-2286"/>
<polygon fill="black" stroke="black" points="862.23,-2282.5 852.23,-2286 862.23,-2289.5 862.23,-2282.5"/>
</g>
<!-- 10 -->
<g id="node16" class="node">
<title>10</title>
<polygon fill="#87ceeb" stroke="black" points="773,-2304 737,-2304 737,-2268 773,-2268 773,-2304"/>
<text text-anchor="middle" x="755" y="-2282.3" font-family="Times,serif" font-size="14.00">&amp;</text>
</g>
<!-- 7&#45;&gt;10 -->
<g id="edge14" class="edge">
<title>7&#45;&gt;10</title>
<path fill="none" stroke="black" d="M749,-2375.68C749,-2375.68 749,-2314.05 749,-2314.05"/>
<polygon fill="black" stroke="black" points="752.5,-2314.05 749,-2304.05 745.5,-2314.05 752.5,-2314.05"/>
</g>
<!-- 8 -->
<g id="node22" class="node">
<title>8</title>
<polygon fill="#87ceeb" stroke="black" points="690,-2196 654,-2196 654,-2160 690,-2160 690,-2196"/>
<text text-anchor="middle" x="672" y="-2174.3" font-family="Times,serif" font-size="14.00">&amp;</text>
</g>
<!-- 7&#45;&gt;8 -->
<g id="edge13" class="edge">
<title>7&#45;&gt;8</title>
<path fill="none" stroke="black" d="M736.99,-2394C710.98,-2394 666,-2394 666,-2394 666,-2394 666,-2206.04 666,-2206.04"/>
<polygon fill="black" stroke="black" points="669.5,-2206.04 666,-2196.04 662.5,-2206.04 669.5,-2206.04"/>
</g>
<!-- 9&#45;&gt;10 -->
<g id="edge16" class="edge">
<title>9&#45;&gt;10</title>
<path fill="none" stroke="black" d="M869.67,-2375.83C869.67,-2354.5 869.67,-2322 869.67,-2322 869.67,-2322 761,-2322 761,-2322 761,-2322 761,-2314.42 761,-2314.42"/>
<polygon fill="black" stroke="black" points="764.5,-2314.42 761,-2304.42 757.5,-2314.42 764.5,-2314.42"/>
</g>
<!-- 14 -->
<g id="node24" class="node">
<title>14</title>
<polygon fill="#87ceeb" stroke="black" points="852,-2196 816,-2196 816,-2160 852,-2160 852,-2196"/>
<text text-anchor="middle" x="834" y="-2174.3" font-family="Times,serif" font-size="14.00">&amp;</text>
</g>
<!-- 9&#45;&gt;14 -->
<g id="edge17" class="edge">
<title>9&#45;&gt;14</title>
<path fill="none" stroke="black" d="M881.33,-2375.96C881.33,-2324.04 881.33,-2178 881.33,-2178 881.33,-2178 862.16,-2178 862.16,-2178"/>
<polygon fill="black" stroke="black" points="862.16,-2174.5 852.16,-2178 862.16,-2181.5 862.16,-2174.5"/>
</g>
<!-- 39 -->
<g id="node18" class="node">
<title>39</title>
<polygon fill="#87ceeb" stroke="black" points="326,-2304 290,-2304 290,-2268 326,-2268 326,-2304"/>
<text text-anchor="middle" x="308" y="-2282.3" font-family="Times,serif" font-size="14.00">&amp;</text>
</g>
<!-- 35&#45;&gt;39 -->
<g id="edge47" class="edge">
<title>35&#45;&gt;39</title>
<path fill="none" stroke="black" d="M308,-2375.68C308,-2375.68 308,-2314.05 308,-2314.05"/>
<polygon fill="black" stroke="black" points="311.5,-2314.05 308,-2304.05 304.5,-2314.05 311.5,-2314.05"/>
</g>
<!-- 36 -->
<g id="node48" class="node">
<title>36</title>
<polygon fill="#87ceeb" stroke="black" points="593,-1224 557,-1224 557,-1188 593,-1188 593,-1224"/>
<text text-anchor="middle" x="575" y="-1202.3" font-family="Times,serif" font-size="14.00">&amp;</text>
</g>
<!-- 35&#45;&gt;36 -->
<g id="edge46" class="edge">
<title>35&#45;&gt;36</title>
<path fill="none" stroke="black" d="M326.41,-2400C354.16,-2400 403.5,-2400 403.5,-2400 403.5,-2400 403.5,-1206 403.5,-1206 403.5,-1206 546.97,-1206 546.97,-1206"/>
<polygon fill="black" stroke="black" points="546.97,-1209.5 556.97,-1206 546.97,-1202.5 546.97,-1209.5"/>
</g>
<!-- 37&#45;&gt;39 -->
<g id="edge50" class="edge">
<title>37&#45;&gt;39</title>
<path fill="none" stroke="black" d="M195,-2375.76C195,-2346.43 195,-2292 195,-2292 195,-2292 279.84,-2292 279.84,-2292"/>
<polygon fill="black" stroke="black" points="279.84,-2295.5 289.84,-2292 279.84,-2288.5 279.84,-2295.5"/>
</g>
<!-- 38 -->
<g id="node53" class="node">
<title>38</title>
<polygon fill="#87ceeb" stroke="black" points="283,-1008 247,-1008 247,-972 283,-972 283,-1008"/>
<text text-anchor="middle" x="265" y="-986.3" font-family="Times,serif" font-size="14.00">&amp;</text>
</g>
<!-- 37&#45;&gt;38 -->
<g id="edge49" class="edge">
<title>37&#45;&gt;38</title>
<path fill="none" stroke="black" d="M208.3,-2394C226.27,-2394 251,-2394 251,-2394 251,-2394 251,-1018.01 251,-1018.01"/>
<polygon fill="black" stroke="black" points="254.5,-1018.01 251,-1008.01 247.5,-1018.01 254.5,-1018.01"/>
</g>
<!-- 45 -->
<g id="node19" class="node">
<title>45</title>
<polygon fill="#87ceeb" stroke="black" points="37,-2304 1,-2304 1,-2268 37,-2268 37,-2304"/>
<text text-anchor="middle" x="19" y="-2282.3" font-family="Times,serif" font-size="14.00">&amp;</text>
</g>
<!-- 63&#45;&gt;45 -->
<g id="edge80" class="edge">
<title>63&#45;&gt;45</title>
<path fill="none" stroke="black" d="M19,-2375.68C19,-2375.68 19,-2314.05 19,-2314.05"/>
<polygon fill="black" stroke="black" points="22.5,-2314.05 19,-2304.05 15.5,-2314.05 22.5,-2314.05"/>
</g>
<!-- 46 -->
<g id="node54" class="node">
<title>46</title>
<polygon fill="#87ceeb" stroke="black" points="77,-1008 41,-1008 41,-972 77,-972 77,-1008"/>
<text text-anchor="middle" x="59" y="-986.3" font-family="Times,serif" font-size="14.00">&amp;</text>
</g>
<!-- 63&#45;&gt;46 -->
<g id="edge79" class="edge">
<title>63&#45;&gt;46</title>
<path fill="none" stroke="black" d="M37.32,-2394C42.94,-2394 47.67,-2394 47.67,-2394 47.67,-2394 47.67,-1018.01 47.67,-1018.01"/>
<polygon fill="black" stroke="black" points="51.17,-1018.01 47.67,-1008.01 44.17,-1018.01 51.17,-1018.01"/>
</g>
<!-- 64&#45;&gt;45 -->
<g id="edge82" class="edge">
<title>64&#45;&gt;45</title>
<path fill="none" stroke="black" d="M103,-2375.94C103,-2343.79 103,-2280 103,-2280 103,-2280 47.23,-2280 47.23,-2280"/>
<polygon fill="black" stroke="black" points="47.23,-2276.5 37.23,-2280 47.23,-2283.5 47.23,-2276.5"/>
</g>
<!-- 50 -->
<g id="node55" class="node">
<title>50</title>
<polygon fill="#87ceeb" stroke="black" points="182,-1008 146,-1008 146,-972 182,-972 182,-1008"/>
<text text-anchor="middle" x="164" y="-986.3" font-family="Times,serif" font-size="14.00">&amp;</text>
</g>
<!-- 64&#45;&gt;50 -->
<g id="edge81" class="edge">
<title>64&#45;&gt;50</title>
<path fill="none" stroke="black" d="M121.17,-2388C136.74,-2388 156.67,-2388 156.67,-2388 156.67,-2388 156.67,-1018.19 156.67,-1018.19"/>
<polygon fill="black" stroke="black" points="160.17,-1018.19 156.67,-1008.19 153.17,-1018.19 160.17,-1018.19"/>
</g>
<!-- 28 -->
<g id="node41" class="node">
<title>28</title>
<polygon fill="#87ceeb" stroke="black" points="525,-1656 489,-1656 489,-1620 525,-1620 525,-1656"/>
<text text-anchor="middle" x="507" y="-1634.3" font-family="Times,serif" font-size="14.00">&amp;</text>
</g>
<!-- 65&#45;&gt;28 -->
<g id="edge84" class="edge">
<title>65&#45;&gt;28</title>
<path fill="none" stroke="black" d="M566.77,-2388C542.07,-2388 501,-2388 501,-2388 501,-2388 501,-1666.17 501,-1666.17"/>
<polygon fill="black" stroke="black" points="504.5,-1666.17 501,-1656.17 497.5,-1666.17 504.5,-1666.17"/>
</g>
<!-- 29 -->
<g id="node42" class="node">
<title>29</title>
<polygon fill="#87ceeb" stroke="black" points="604,-1656 568,-1656 568,-1620 604,-1620 604,-1656"/>
<text text-anchor="middle" x="586" y="-1634.3" font-family="Times,serif" font-size="14.00">&amp;</text>
</g>
<!-- 65&#45;&gt;29 -->
<g id="edge83" class="edge">
<title>65&#45;&gt;29</title>
<path fill="none" stroke="black" d="M579.67,-2375.69C579.67,-2375.69 579.67,-1666.07 579.67,-1666.07"/>
<polygon fill="black" stroke="black" points="583.17,-1666.07 579.67,-1656.07 576.17,-1666.07 583.17,-1666.07"/>
</g>
<!-- 18 -->
<g id="node17" class="node">
<title>18</title>
<polygon fill="#87ceeb" stroke="black" points="1271,-2304 1235,-2304 1235,-2268 1271,-2268 1271,-2304"/>
<text text-anchor="middle" x="1253" y="-2282.3" font-family="Times,serif" font-size="14.00">&amp;</text>
</g>
<!-- 66&#45;&gt;18 -->
<g id="edge85" class="edge">
<title>66&#45;&gt;18</title>
<path fill="none" stroke="black" d="M1259,-2375.68C1259,-2375.68 1259,-2314.05 1259,-2314.05"/>
<polygon fill="black" stroke="black" points="1262.5,-2314.05 1259,-2304.05 1255.5,-2314.05 1262.5,-2314.05"/>
</g>
<!-- 17 -->
<g id="node25" class="node">
<title>17</title>
<polygon fill="#87ceeb" stroke="black" points="1057,-2196 1021,-2196 1021,-2160 1057,-2160 1057,-2196"/>
<text text-anchor="middle" x="1039" y="-2174.3" font-family="Times,serif" font-size="14.00">&amp;</text>
</g>
<!-- 66&#45;&gt;17 -->
<g id="edge86" class="edge">
<title>66&#45;&gt;17</title>
<path fill="none" stroke="black" d="M1247,-2375.72C1247,-2360.05 1247,-2340 1247,-2340 1247,-2340 1046.67,-2340 1046.67,-2340 1046.67,-2340 1046.67,-2206.27 1046.67,-2206.27"/>
<polygon fill="black" stroke="black" points="1050.17,-2206.27 1046.67,-2196.27 1043.17,-2206.27 1050.17,-2206.27"/>
</g>
<!-- 67&#45;&gt;18 -->
<g id="edge88" class="edge">
<title>67&#45;&gt;18</title>
<path fill="none" stroke="black" d="M1176,-2375.76C1176,-2346.43 1176,-2292 1176,-2292 1176,-2292 1224.75,-2292 1224.75,-2292"/>
<polygon fill="black" stroke="black" points="1224.75,-2295.5 1234.75,-2292 1224.75,-2288.5 1224.75,-2295.5"/>
</g>
<!-- 22 -->
<g id="node27" class="node">
<title>22</title>
<polygon fill="#87ceeb" stroke="black" points="978,-2196 942,-2196 942,-2160 978,-2160 978,-2196"/>
<text text-anchor="middle" x="960" y="-2174.3" font-family="Times,serif" font-size="14.00">&amp;</text>
</g>
<!-- 67&#45;&gt;22 -->
<g id="edge87" class="edge">
<title>67&#45;&gt;22</title>
<path fill="none" stroke="black" d="M1164,-2375.58C1164,-2366.72 1164,-2358 1164,-2358 1164,-2358 962.67,-2358 962.67,-2358 962.67,-2358 962.67,-2206.25 962.67,-2206.25"/>
<polygon fill="black" stroke="black" points="966.17,-2206.25 962.67,-2196.25 959.17,-2206.25 966.17,-2206.25"/>
</g>
<!-- 12 -->
<g id="node23" class="node">
<title>12</title>
<polygon fill="#87ceeb" stroke="red" points="771,-2196 735,-2196 735,-2160 771,-2160 771,-2196"/>
<text text-anchor="middle" x="753" y="-2174.3" font-family="Times,serif" font-size="14.00">~</text>
</g>
<!-- 10&#45;&gt;12 -->
<g id="edge18" class="edge">
<title>10&#45;&gt;12</title>
<path fill="none" stroke="black" d="M754,-2267.68C754,-2267.68 754,-2206.05 754,-2206.05"/>
<polygon fill="black" stroke="black" points="757.5,-2206.05 754,-2196.05 750.5,-2206.05 757.5,-2206.05"/>
</g>
<!-- 20 -->
<g id="node26" class="node">
<title>20</title>
<polygon fill="#87ceeb" stroke="red" points="1257,-2196 1221,-2196 1221,-2160 1257,-2160 1257,-2196"/>
<text text-anchor="middle" x="1239" y="-2174.3" font-family="Times,serif" font-size="14.00">~</text>
</g>
<!-- 18&#45;&gt;20 -->
<g id="edge26" class="edge">
<title>18&#45;&gt;20</title>
<path fill="none" stroke="black" d="M1246,-2267.68C1246,-2267.68 1246,-2206.05 1246,-2206.05"/>
<polygon fill="black" stroke="black" points="1249.5,-2206.05 1246,-2196.05 1242.5,-2206.05 1249.5,-2206.05"/>
</g>
<!-- 41 -->
<g id="node28" class="node">
<title>41</title>
<polygon fill="#87ceeb" stroke="red" points="395,-2196 359,-2196 359,-2160 395,-2160 395,-2196"/>
<text text-anchor="middle" x="377" y="-2174.3" font-family="Times,serif" font-size="14.00">~</text>
</g>
<!-- 39&#45;&gt;41 -->
<g id="edge52" class="edge">
<title>39&#45;&gt;41</title>
<path fill="none" stroke="black" d="M308.5,-2267.68C308.5,-2236.87 308.5,-2178 308.5,-2178 308.5,-2178 348.64,-2178 348.64,-2178"/>
<polygon fill="black" stroke="black" points="348.64,-2181.5 358.64,-2178 348.64,-2174.5 348.64,-2181.5"/>
</g>
<!-- 47 -->
<g id="node29" class="node">
<title>47</title>
<polygon fill="#87ceeb" stroke="red" points="36,-2196 0,-2196 0,-2160 36,-2160 36,-2196"/>
<text text-anchor="middle" x="18" y="-2174.3" font-family="Times,serif" font-size="14.00">~</text>
</g>
<!-- 45&#45;&gt;47 -->
<g id="edge58" class="edge">
<title>45&#45;&gt;47</title>
<path fill="none" stroke="black" d="M18.5,-2267.68C18.5,-2267.68 18.5,-2206.05 18.5,-2206.05"/>
<polygon fill="black" stroke="black" points="22,-2206.05 18.5,-2196.05 15,-2206.05 22,-2206.05"/>
</g>
<!-- 71&#45;&gt;17 -->
<g id="edge96" class="edge">
<title>71&#45;&gt;17</title>
<path fill="none" stroke="black" d="M1018.17,-2280C1027.25,-2280 1036.33,-2280 1036.33,-2280 1036.33,-2280 1036.33,-2206.24 1036.33,-2206.24"/>
<polygon fill="black" stroke="black" points="1039.83,-2206.24 1036.33,-2196.24 1032.83,-2206.24 1039.83,-2206.24"/>
</g>
<!-- 71&#45;&gt;22 -->
<g id="edge95" class="edge">
<title>71&#45;&gt;22</title>
<path fill="none" stroke="black" d="M991.33,-2267.76C991.33,-2238.43 991.33,-2184 991.33,-2184 991.33,-2184 988.23,-2184 988.23,-2184"/>
<polygon fill="black" stroke="black" points="988.23,-2180.5 978.23,-2184 988.23,-2187.5 988.23,-2180.5"/>
</g>
<!-- 72&#45;&gt;8 -->
<g id="edge98" class="edge">
<title>72&#45;&gt;8</title>
<path fill="none" stroke="black" d="M828,-2267.72C828,-2252.05 828,-2232 828,-2232 828,-2232 678,-2232 678,-2232 678,-2232 678,-2206.28 678,-2206.28"/>
<polygon fill="black" stroke="black" points="681.5,-2206.28 678,-2196.28 674.5,-2206.28 681.5,-2206.28"/>
</g>
<!-- 72&#45;&gt;14 -->
<g id="edge97" class="edge">
<title>72&#45;&gt;14</title>
<path fill="none" stroke="black" d="M840,-2267.68C840,-2267.68 840,-2206.05 840,-2206.05"/>
<polygon fill="black" stroke="black" points="843.5,-2206.05 840,-2196.05 836.5,-2206.05 843.5,-2206.05"/>
</g>
<!-- 11 -->
<g id="node30" class="node">
<title>11</title>
<polygon fill="#87ceeb" stroke="red" points="686,-2088 650,-2088 650,-2052 686,-2052 686,-2088"/>
<text text-anchor="middle" x="668" y="-2066.3" font-family="Times,serif" font-size="14.00">~</text>
</g>
<!-- 8&#45;&gt;11 -->
<g id="edge15" class="edge">
<title>8&#45;&gt;11</title>
<path fill="none" stroke="black" d="M670,-2159.68C670,-2159.68 670,-2098.05 670,-2098.05"/>
<polygon fill="black" stroke="black" points="673.5,-2098.05 670,-2088.05 666.5,-2098.05 673.5,-2098.05"/>
</g>
<!-- 13 -->
<g id="node34" class="node">
<title>13</title>
<polygon fill="#87ceeb" stroke="black" points="705,-1980 669,-1980 669,-1944 705,-1944 705,-1980"/>
<text text-anchor="middle" x="687" y="-1958.3" font-family="Times,serif" font-size="14.00">&amp;</text>
</g>
<!-- 12&#45;&gt;13 -->
<g id="edge20" class="edge">
<title>12&#45;&gt;13</title>
<path fill="none" stroke="black" d="M734.83,-2178C718.64,-2178 697.5,-2178 697.5,-2178 697.5,-2178 697.5,-1990.04 697.5,-1990.04"/>
<polygon fill="black" stroke="black" points="701,-1990.04 697.5,-1980.04 694,-1990.04 701,-1990.04"/>
</g>
<!-- 15 -->
<g id="node31" class="node">
<title>15</title>
<polygon fill="#87ceeb" stroke="red" points="852,-2088 816,-2088 816,-2052 852,-2052 852,-2088"/>
<text text-anchor="middle" x="834" y="-2066.3" font-family="Times,serif" font-size="14.00">~</text>
</g>
<!-- 14&#45;&gt;15 -->
<g id="edge22" class="edge">
<title>14&#45;&gt;15</title>
<path fill="none" stroke="black" d="M834,-2159.68C834,-2159.68 834,-2098.05 834,-2098.05"/>
<polygon fill="black" stroke="black" points="837.5,-2098.05 834,-2088.05 830.5,-2098.05 837.5,-2098.05"/>
</g>
<!-- 19 -->
<g id="node32" class="node">
<title>19</title>
<polygon fill="#87ceeb" stroke="red" points="1010,-2088 974,-2088 974,-2052 1010,-2052 1010,-2088"/>
<text text-anchor="middle" x="992" y="-2066.3" font-family="Times,serif" font-size="14.00">~</text>
</g>
<!-- 17&#45;&gt;19 -->
<g id="edge25" class="edge">
<title>17&#45;&gt;19</title>
<path fill="none" stroke="black" d="M1020.73,-2172C1010.86,-2172 1000.67,-2172 1000.67,-2172 1000.67,-2172 1000.67,-2098.24 1000.67,-2098.24"/>
<polygon fill="black" stroke="black" points="1004.17,-2098.24 1000.67,-2088.24 997.17,-2098.24 1004.17,-2098.24"/>
</g>
<!-- 21 -->
<g id="node35" class="node">
<title>21</title>
<polygon fill="#87ceeb" stroke="black" points="1012,-1980 976,-1980 976,-1944 1012,-1944 1012,-1980"/>
<text text-anchor="middle" x="994" y="-1958.3" font-family="Times,serif" font-size="14.00">&amp;</text>
</g>
<!-- 20&#45;&gt;21 -->
<g id="edge28" class="edge">
<title>20&#45;&gt;21</title>
<path fill="none" stroke="black" d="M1239,-2159.96C1239,-2108.04 1239,-1962 1239,-1962 1239,-1962 1022.02,-1962 1022.02,-1962"/>
<polygon fill="black" stroke="black" points="1022.02,-1958.5 1012.02,-1962 1022.02,-1965.5 1022.02,-1958.5"/>
</g>
<!-- 23 -->
<g id="node33" class="node">
<title>23</title>
<polygon fill="#87ceeb" stroke="red" points="931,-2088 895,-2088 895,-2052 931,-2052 931,-2088"/>
<text text-anchor="middle" x="913" y="-2066.3" font-family="Times,serif" font-size="14.00">~</text>
</g>
<!-- 22&#45;&gt;23 -->
<g id="edge30" class="edge">
<title>22&#45;&gt;23</title>
<path fill="none" stroke="black" d="M958,-2159.68C958,-2128.87 958,-2070 958,-2070 958,-2070 941.04,-2070 941.04,-2070"/>
<polygon fill="black" stroke="black" points="941.04,-2066.5 931.04,-2070 941.04,-2073.5 941.04,-2066.5"/>
</g>
<!-- 42 -->
<g id="node60" class="node">
<title>42</title>
<polygon fill="#87ceeb" stroke="black" points="452,-792 416,-792 416,-756 452,-756 452,-792"/>
<text text-anchor="middle" x="434" y="-770.3" font-family="Times,serif" font-size="14.00">&amp;</text>
</g>
<!-- 41&#45;&gt;42 -->
<g id="edge54" class="edge">
<title>41&#45;&gt;42</title>
<path fill="none" stroke="black" d="M386.67,-2159.81C386.67,-1995.95 386.67,-780 386.67,-780 386.67,-780 405.84,-780 405.84,-780"/>
<polygon fill="black" stroke="black" points="405.84,-783.5 415.84,-780 405.84,-776.5 405.84,-783.5"/>
</g>
<!-- 49 -->
<g id="node61" class="node">
<title>49</title>
<polygon fill="#87ceeb" stroke="black" points="77,-792 41,-792 41,-756 77,-756 77,-792"/>
<text text-anchor="middle" x="59" y="-770.3" font-family="Times,serif" font-size="14.00">&amp;</text>
</g>
<!-- 47&#45;&gt;49 -->
<g id="edge60" class="edge">
<title>47&#45;&gt;49</title>
<path fill="none" stroke="black" d="M18,-2159.99C18,-1996.44 18,-774 18,-774 18,-774 30.9,-774 30.9,-774"/>
<polygon fill="black" stroke="black" points="30.9,-777.5 40.9,-774 30.9,-770.5 30.9,-777.5"/>
</g>
<!-- 11&#45;&gt;13 -->
<g id="edge19" class="edge">
<title>11&#45;&gt;13</title>
<path fill="none" stroke="black" d="M677.5,-2051.68C677.5,-2051.68 677.5,-1990.05 677.5,-1990.05"/>
<polygon fill="black" stroke="black" points="681,-1990.05 677.5,-1980.05 674,-1990.05 681,-1990.05"/>
</g>
<!-- 16 -->
<g id="node36" class="node">
<title>16</title>
<polygon fill="#87ceeb" stroke="black" points="705,-1872 669,-1872 669,-1836 705,-1836 705,-1872"/>
<text text-anchor="middle" x="687" y="-1850.3" font-family="Times,serif" font-size="14.00">&amp;</text>
</g>
<!-- 15&#45;&gt;16 -->
<g id="edge23" class="edge">
<title>15&#45;&gt;16</title>
<path fill="none" stroke="black" d="M834,-2051.73C834,-2000.64 834,-1860 834,-1860 834,-1860 715.03,-1860 715.03,-1860"/>
<polygon fill="black" stroke="black" points="715.03,-1856.5 705.03,-1860 715.03,-1863.5 715.03,-1856.5"/>
</g>
<!-- 19&#45;&gt;21 -->
<g id="edge27" class="edge">
<title>19&#45;&gt;21</title>
<path fill="none" stroke="black" d="M993,-2051.68C993,-2051.68 993,-1990.05 993,-1990.05"/>
<polygon fill="black" stroke="black" points="996.5,-1990.05 993,-1980.05 989.5,-1990.05 996.5,-1990.05"/>
</g>
<!-- 24 -->
<g id="node37" class="node">
<title>24</title>
<polygon fill="#87ceeb" stroke="black" points="929,-1872 893,-1872 893,-1836 929,-1836 929,-1872"/>
<text text-anchor="middle" x="911" y="-1850.3" font-family="Times,serif" font-size="14.00">&amp;</text>
</g>
<!-- 23&#45;&gt;24 -->
<g id="edge31" class="edge">
<title>23&#45;&gt;24</title>
<path fill="none" stroke="black" d="M906.33,-2051.96C906.33,-2051.96 906.33,-1882.15 906.33,-1882.15"/>
<polygon fill="black" stroke="black" points="909.83,-1882.15 906.33,-1872.15 902.83,-1882.15 909.83,-1882.15"/>
</g>
<!-- 13&#45;&gt;16 -->
<g id="edge21" class="edge">
<title>13&#45;&gt;16</title>
<path fill="none" stroke="black" d="M687,-1943.68C687,-1943.68 687,-1882.05 687,-1882.05"/>
<polygon fill="black" stroke="black" points="690.5,-1882.05 687,-1872.05 683.5,-1882.05 690.5,-1882.05"/>
</g>
<!-- 21&#45;&gt;24 -->
<g id="edge29" class="edge">
<title>21&#45;&gt;24</title>
<path fill="none" stroke="black" d="M975.91,-1962C953.34,-1962 917.67,-1962 917.67,-1962 917.67,-1962 917.67,-1882.32 917.67,-1882.32"/>
<polygon fill="black" stroke="black" points="921.17,-1882.32 917.67,-1872.32 914.17,-1882.32 921.17,-1882.32"/>
</g>
<!-- 25 -->
<g id="node38" class="node">
<title>25</title>
<polygon fill="#87ceeb" stroke="red" points="686,-1764 650,-1764 650,-1728 686,-1728 686,-1764"/>
<text text-anchor="middle" x="668" y="-1742.3" font-family="Times,serif" font-size="14.00">~</text>
</g>
<!-- 16&#45;&gt;25 -->
<g id="edge24" class="edge">
<title>16&#45;&gt;25</title>
<path fill="none" stroke="black" d="M677.5,-1835.68C677.5,-1835.68 677.5,-1774.05 677.5,-1774.05"/>
<polygon fill="black" stroke="black" points="681,-1774.05 677.5,-1764.05 674,-1774.05 681,-1774.05"/>
</g>
<!-- 26 -->
<g id="node39" class="node">
<title>26</title>
<polygon fill="#87ceeb" stroke="red" points="765,-1764 729,-1764 729,-1728 765,-1728 765,-1764"/>
<text text-anchor="middle" x="747" y="-1742.3" font-family="Times,serif" font-size="14.00">~</text>
</g>
<!-- 24&#45;&gt;26 -->
<g id="edge32" class="edge">
<title>24&#45;&gt;26</title>
<path fill="none" stroke="black" d="M892.84,-1848C850.74,-1848 750,-1848 750,-1848 750,-1848 750,-1774.24 750,-1774.24"/>
<polygon fill="black" stroke="black" points="753.5,-1774.24 750,-1764.24 746.5,-1774.24 753.5,-1774.24"/>
</g>
<!-- 27 -->
<g id="node40" class="node">
<title>27</title>
<polygon fill="#87ceeb" stroke="black" points="686,-1656 650,-1656 650,-1620 686,-1620 686,-1656"/>
<text text-anchor="middle" x="668" y="-1634.3" font-family="Times,serif" font-size="14.00">&amp;</text>
</g>
<!-- 25&#45;&gt;27 -->
<g id="edge33" class="edge">
<title>25&#45;&gt;27</title>
<path fill="none" stroke="black" d="M668,-1727.68C668,-1727.68 668,-1666.05 668,-1666.05"/>
<polygon fill="black" stroke="black" points="671.5,-1666.05 668,-1656.05 664.5,-1666.05 671.5,-1666.05"/>
</g>
<!-- 25&#45;&gt;28 -->
<g id="edge34" class="edge">
<title>25&#45;&gt;28</title>
<path fill="none" stroke="black" d="M649.92,-1746C609.03,-1746 513,-1746 513,-1746 513,-1746 513,-1666.32 513,-1666.32"/>
<polygon fill="black" stroke="black" points="516.5,-1666.32 513,-1656.32 509.5,-1666.32 516.5,-1666.32"/>
</g>
<!-- 26&#45;&gt;27 -->
<g id="edge35" class="edge">
<title>26&#45;&gt;27</title>
<path fill="none" stroke="black" d="M753,-1727.68C753,-1696.87 753,-1638 753,-1638 753,-1638 696.03,-1638 696.03,-1638"/>
<polygon fill="black" stroke="black" points="696.03,-1634.5 686.03,-1638 696.03,-1641.5 696.03,-1634.5"/>
</g>
<!-- 26&#45;&gt;29 -->
<g id="edge36" class="edge">
<title>26&#45;&gt;29</title>
<path fill="none" stroke="black" d="M741,-1727.72C741,-1712.05 741,-1692 741,-1692 741,-1692 591.33,-1692 591.33,-1692 591.33,-1692 591.33,-1666.28 591.33,-1666.28"/>
<polygon fill="black" stroke="black" points="594.83,-1666.28 591.33,-1656.28 587.83,-1666.28 594.83,-1666.28"/>
</g>
<!-- 33 -->
<g id="node45" class="node">
<title>33</title>
<polygon fill="#87ceeb" stroke="red" points="685,-1548 649,-1548 649,-1512 685,-1512 685,-1548"/>
<text text-anchor="middle" x="667" y="-1526.3" font-family="Times,serif" font-size="14.00">~</text>
</g>
<!-- 27&#45;&gt;33 -->
<g id="edge37" class="edge">
<title>27&#45;&gt;33</title>
<path fill="none" stroke="black" d="M667.5,-1619.68C667.5,-1619.68 667.5,-1558.05 667.5,-1558.05"/>
<polygon fill="black" stroke="black" points="671,-1558.05 667.5,-1548.05 664,-1558.05 671,-1558.05"/>
</g>
<!-- 30 -->
<g id="node43" class="node">
<title>30</title>
<polygon fill="#87ceeb" stroke="red" points="525,-1548 489,-1548 489,-1512 525,-1512 525,-1548"/>
<text text-anchor="middle" x="507" y="-1526.3" font-family="Times,serif" font-size="14.00">~</text>
</g>
<!-- 28&#45;&gt;30 -->
<g id="edge38" class="edge">
<title>28&#45;&gt;30</title>
<path fill="none" stroke="black" d="M507,-1619.68C507,-1619.68 507,-1558.05 507,-1558.05"/>
<polygon fill="black" stroke="black" points="510.5,-1558.05 507,-1548.05 503.5,-1558.05 510.5,-1558.05"/>
</g>
<!-- 31 -->
<g id="node44" class="node">
<title>31</title>
<polygon fill="#87ceeb" stroke="red" points="604,-1548 568,-1548 568,-1512 604,-1512 604,-1548"/>
<text text-anchor="middle" x="586" y="-1526.3" font-family="Times,serif" font-size="14.00">~</text>
</g>
<!-- 29&#45;&gt;31 -->
<g id="edge39" class="edge">
<title>29&#45;&gt;31</title>
<path fill="none" stroke="black" d="M586,-1619.68C586,-1619.68 586,-1558.05 586,-1558.05"/>
<polygon fill="black" stroke="black" points="589.5,-1558.05 586,-1548.05 582.5,-1558.05 589.5,-1558.05"/>
</g>
<!-- 32 -->
<g id="node46" class="node">
<title>32</title>
<polygon fill="#87ceeb" stroke="black" points="593,-1440 557,-1440 557,-1404 593,-1404 593,-1440"/>
<text text-anchor="middle" x="575" y="-1418.3" font-family="Times,serif" font-size="14.00">&amp;</text>
</g>
<!-- 30&#45;&gt;32 -->
<g id="edge40" class="edge">
<title>30&#45;&gt;32</title>
<path fill="none" stroke="black" d="M525.01,-1530C541.05,-1530 562,-1530 562,-1530 562,-1530 562,-1450.32 562,-1450.32"/>
<polygon fill="black" stroke="black" points="565.5,-1450.32 562,-1440.32 558.5,-1450.32 565.5,-1450.32"/>
</g>
<!-- 31&#45;&gt;32 -->
<g id="edge41" class="edge">
<title>31&#45;&gt;32</title>
<path fill="none" stroke="black" d="M580.5,-1511.68C580.5,-1511.68 580.5,-1450.05 580.5,-1450.05"/>
<polygon fill="black" stroke="black" points="584,-1450.05 580.5,-1440.05 577,-1450.05 584,-1450.05"/>
</g>
<!-- 34 -->
<g id="node47" class="node">
<title>34</title>
<polygon fill="#87ceeb" stroke="black" points="593,-1332 557,-1332 557,-1296 593,-1296 593,-1332"/>
<text text-anchor="middle" x="575" y="-1310.3" font-family="Times,serif" font-size="14.00">&amp;</text>
</g>
<!-- 33&#45;&gt;34 -->
<g id="edge43" class="edge">
<title>33&#45;&gt;34</title>
<path fill="none" stroke="black" d="M667,-1511.96C667,-1460.04 667,-1314 667,-1314 667,-1314 603.18,-1314 603.18,-1314"/>
<polygon fill="black" stroke="black" points="603.18,-1310.5 593.18,-1314 603.18,-1317.5 603.18,-1310.5"/>
</g>
<!-- 32&#45;&gt;34 -->
<g id="edge42" class="edge">
<title>32&#45;&gt;34</title>
<path fill="none" stroke="black" d="M575,-1403.68C575,-1403.68 575,-1342.05 575,-1342.05"/>
<polygon fill="black" stroke="black" points="578.5,-1342.05 575,-1332.05 571.5,-1342.05 578.5,-1342.05"/>
</g>
<!-- 34&#45;&gt;36 -->
<g id="edge44" class="edge">
<title>34&#45;&gt;36</title>
<path fill="none" stroke="black" d="M575,-1295.68C575,-1295.68 575,-1234.05 575,-1234.05"/>
<polygon fill="black" stroke="black" points="578.5,-1234.05 575,-1224.05 571.5,-1234.05 578.5,-1234.05"/>
</g>
<!-- 70 -->
<g id="node49" class="node">
<title>70</title>
<polygon fill="#87ceeb" stroke="green" points="370,-1224 334,-1224 334,-1188 370,-1188 370,-1224"/>
<text text-anchor="middle" x="352" y="-1202.3" font-family="Times,serif" font-size="14.00">F</text>
</g>
<!-- 34&#45;&gt;70 -->
<g id="edge45" class="edge">
<title>34&#45;&gt;70</title>
<path fill="none" stroke="black" d="M556.69,-1314C505.47,-1314 364.5,-1314 364.5,-1314 364.5,-1314 364.5,-1234.32 364.5,-1234.32"/>
<polygon fill="black" stroke="black" points="368,-1234.32 364.5,-1224.32 361,-1234.32 368,-1234.32"/>
</g>
<!-- 43 -->
<g id="node50" class="node">
<title>43</title>
<polygon fill="#87ceeb" stroke="red" points="575,-1116 539,-1116 539,-1080 575,-1080 575,-1116"/>
<text text-anchor="middle" x="557" y="-1094.3" font-family="Times,serif" font-size="14.00">~</text>
</g>
<!-- 36&#45;&gt;43 -->
<g id="edge48" class="edge">
<title>36&#45;&gt;43</title>
<path fill="none" stroke="black" d="M566,-1187.68C566,-1187.68 566,-1126.05 566,-1126.05"/>
<polygon fill="black" stroke="black" points="569.5,-1126.05 566,-1116.05 562.5,-1126.05 569.5,-1126.05"/>
</g>
<!-- 68 -->
<g id="node51" class="node">
<title>68</title>
<polygon fill="#87ceeb" stroke="green" points="370,-1116 334,-1116 334,-1080 370,-1080 370,-1116"/>
<text text-anchor="middle" x="352" y="-1094.3" font-family="Times,serif" font-size="14.00">F</text>
</g>
<!-- 70&#45;&gt;68 -->
<g id="edge93" class="edge">
<title>70&#45;&gt;68</title>
<path fill="none" stroke="black" d="M352,-1187.68C352,-1187.68 352,-1126.05 352,-1126.05"/>
<polygon fill="black" stroke="black" points="355.5,-1126.05 352,-1116.05 348.5,-1126.05 355.5,-1126.05"/>
</g>
<!-- 69 -->
<g id="node52" class="node">
<title>69</title>
<polygon fill="#87ceeb" stroke="green" points="291,-1116 255,-1116 255,-1080 291,-1080 291,-1116"/>
<text text-anchor="middle" x="273" y="-1094.3" font-family="Times,serif" font-size="14.00">F</text>
</g>
<!-- 70&#45;&gt;69 -->
<g id="edge94" class="edge">
<title>70&#45;&gt;69</title>
<path fill="none" stroke="black" d="M333.96,-1206C310.5,-1206 272.5,-1206 272.5,-1206 272.5,-1206 272.5,-1126.32 272.5,-1126.32"/>
<polygon fill="black" stroke="black" points="276,-1126.32 272.5,-1116.32 269,-1126.32 276,-1126.32"/>
</g>
<!-- 44 -->
<g id="node62" class="node">
<title>44</title>
<polygon fill="#87ceeb" stroke="black" points="452,-684 416,-684 416,-648 452,-648 452,-684"/>
<text text-anchor="middle" x="434" y="-662.3" font-family="Times,serif" font-size="14.00">&amp;</text>
</g>
<!-- 43&#45;&gt;44 -->
<g id="edge56" class="edge">
<title>43&#45;&gt;44</title>
<path fill="none" stroke="black" d="M557,-1079.99C557,-998.23 557,-666 557,-666 557,-666 462.15,-666 462.15,-666"/>
<polygon fill="black" stroke="black" points="462.15,-662.5 452.15,-666 462.15,-669.5 462.15,-662.5"/>
</g>
<!-- 68&#45;&gt;50 -->
<g id="edge90" class="edge">
<title>68&#45;&gt;50</title>
<path fill="none" stroke="black" d="M346,-1079.72C346,-1064.05 346,-1044 346,-1044 346,-1044 177,-1044 177,-1044 177,-1044 177,-1018.28 177,-1018.28"/>
<polygon fill="black" stroke="black" points="180.5,-1018.28 177,-1008.28 173.5,-1018.28 180.5,-1018.28"/>
</g>
<!-- 56 -->
<g id="node56" class="node">
<title>56</title>
<polygon fill="#87ceeb" stroke="red" points="370,-1008 334,-1008 334,-972 370,-972 370,-1008"/>
<text text-anchor="middle" x="352" y="-986.3" font-family="Times,serif" font-size="14.00">~</text>
</g>
<!-- 68&#45;&gt;56 -->
<g id="edge89" class="edge">
<title>68&#45;&gt;56</title>
<path fill="none" stroke="black" d="M358,-1079.68C358,-1079.68 358,-1018.05 358,-1018.05"/>
<polygon fill="black" stroke="black" points="361.5,-1018.05 358,-1008.05 354.5,-1018.05 361.5,-1018.05"/>
</g>
<!-- 69&#45;&gt;38 -->
<g id="edge92" class="edge">
<title>69&#45;&gt;38</title>
<path fill="none" stroke="black" d="M269,-1079.68C269,-1079.68 269,-1018.05 269,-1018.05"/>
<polygon fill="black" stroke="black" points="272.5,-1018.05 269,-1008.05 265.5,-1018.05 272.5,-1018.05"/>
</g>
<!-- 69&#45;&gt;46 -->
<g id="edge91" class="edge">
<title>69&#45;&gt;46</title>
<path fill="none" stroke="black" d="M254.9,-1098C204.97,-1098 69,-1098 69,-1098 69,-1098 69,-1018.32 69,-1018.32"/>
<polygon fill="black" stroke="black" points="72.5,-1018.32 69,-1008.32 65.5,-1018.32 72.5,-1018.32"/>
</g>
<!-- 40 -->
<g id="node57" class="node">
<title>40</title>
<polygon fill="#87ceeb" stroke="red" points="283,-900 247,-900 247,-864 283,-864 283,-900"/>
<text text-anchor="middle" x="265" y="-878.3" font-family="Times,serif" font-size="14.00">~</text>
</g>
<!-- 38&#45;&gt;40 -->
<g id="edge51" class="edge">
<title>38&#45;&gt;40</title>
<path fill="none" stroke="black" d="M265,-971.68C265,-971.68 265,-910.05 265,-910.05"/>
<polygon fill="black" stroke="black" points="268.5,-910.05 265,-900.05 261.5,-910.05 268.5,-910.05"/>
</g>
<!-- 48 -->
<g id="node58" class="node">
<title>48</title>
<polygon fill="#87ceeb" stroke="red" points="77,-900 41,-900 41,-864 77,-864 77,-900"/>
<text text-anchor="middle" x="59" y="-878.3" font-family="Times,serif" font-size="14.00">~</text>
</g>
<!-- 46&#45;&gt;48 -->
<g id="edge59" class="edge">
<title>46&#45;&gt;48</title>
<path fill="none" stroke="black" d="M59,-971.68C59,-971.68 59,-910.05 59,-910.05"/>
<polygon fill="black" stroke="black" points="62.5,-910.05 59,-900.05 55.5,-910.05 62.5,-910.05"/>
</g>
<!-- 51 -->
<g id="node59" class="node">
<title>51</title>
<polygon fill="#87ceeb" stroke="red" points="182,-900 146,-900 146,-864 182,-864 182,-900"/>
<text text-anchor="middle" x="164" y="-878.3" font-family="Times,serif" font-size="14.00">~</text>
</g>
<!-- 50&#45;&gt;51 -->
<g id="edge63" class="edge">
<title>50&#45;&gt;51</title>
<path fill="none" stroke="black" d="M164,-971.68C164,-971.68 164,-910.05 164,-910.05"/>
<polygon fill="black" stroke="black" points="167.5,-910.05 164,-900.05 160.5,-910.05 167.5,-910.05"/>
</g>
<!-- 57 -->
<g id="node67" class="node">
<title>57</title>
<polygon fill="#87ceeb" stroke="black" points="451,-468 415,-468 415,-432 451,-432 451,-468"/>
<text text-anchor="middle" x="433" y="-446.3" font-family="Times,serif" font-size="14.00">&amp;</text>
</g>
<!-- 56&#45;&gt;57 -->
<g id="edge71" class="edge">
<title>56&#45;&gt;57</title>
<path fill="none" stroke="black" d="M370,-990C374.63,-990 378.33,-990 378.33,-990 378.33,-990 378.33,-450 378.33,-450 378.33,-450 404.8,-450 404.8,-450"/>
<polygon fill="black" stroke="black" points="404.8,-453.5 414.8,-450 404.8,-446.5 404.8,-453.5"/>
</g>
<!-- 58 -->
<g id="node68" class="node">
<title>58</title>
<polygon fill="#87ceeb" stroke="black" points="366,-468 330,-468 330,-432 366,-432 366,-468"/>
<text text-anchor="middle" x="348" y="-446.3" font-family="Times,serif" font-size="14.00">&amp;</text>
</g>
<!-- 56&#45;&gt;58 -->
<g id="edge72" class="edge">
<title>56&#45;&gt;58</title>
<path fill="none" stroke="black" d="M355.33,-971.72C355.33,-971.72 355.33,-478.27 355.33,-478.27"/>
<polygon fill="black" stroke="black" points="358.83,-478.27 355.33,-468.27 351.83,-478.27 358.83,-478.27"/>
</g>
<!-- 40&#45;&gt;42 -->
<g id="edge53" class="edge">
<title>40&#45;&gt;42</title>
<path fill="none" stroke="black" d="M259,-863.94C259,-831.79 259,-768 259,-768 259,-768 405.93,-768 405.93,-768"/>
<polygon fill="black" stroke="black" points="405.93,-771.5 415.93,-768 405.93,-764.5 405.93,-771.5"/>
</g>
<!-- 48&#45;&gt;49 -->
<g id="edge61" class="edge">
<title>48&#45;&gt;49</title>
<path fill="none" stroke="black" d="M59,-863.68C59,-863.68 59,-802.05 59,-802.05"/>
<polygon fill="black" stroke="black" points="62.5,-802.05 59,-792.05 55.5,-802.05 62.5,-802.05"/>
</g>
<!-- 52 -->
<g id="node63" class="node">
<title>52</title>
<polygon fill="#87ceeb" stroke="black" points="182,-684 146,-684 146,-648 182,-648 182,-684"/>
<text text-anchor="middle" x="164" y="-662.3" font-family="Times,serif" font-size="14.00">&amp;</text>
</g>
<!-- 51&#45;&gt;52 -->
<g id="edge64" class="edge">
<title>51&#45;&gt;52</title>
<path fill="none" stroke="black" d="M164,-863.96C164,-863.96 164,-694.15 164,-694.15"/>
<polygon fill="black" stroke="black" points="167.5,-694.15 164,-684.15 160.5,-694.15 167.5,-694.15"/>
</g>
<!-- 42&#45;&gt;44 -->
<g id="edge55" class="edge">
<title>42&#45;&gt;44</title>
<path fill="none" stroke="black" d="M434,-755.68C434,-755.68 434,-694.05 434,-694.05"/>
<polygon fill="black" stroke="black" points="437.5,-694.05 434,-684.05 430.5,-694.05 437.5,-694.05"/>
</g>
<!-- 49&#45;&gt;52 -->
<g id="edge62" class="edge">
<title>49&#45;&gt;52</title>
<path fill="none" stroke="black" d="M59,-755.68C59,-724.87 59,-666 59,-666 59,-666 135.71,-666 135.71,-666"/>
<polygon fill="black" stroke="black" points="135.71,-669.5 145.71,-666 135.71,-662.5 135.71,-669.5"/>
</g>
<!-- 53 -->
<g id="node64" class="node">
<title>53</title>
<polygon fill="#87ceeb" stroke="red" points="451,-576 415,-576 415,-540 451,-540 451,-576"/>
<text text-anchor="middle" x="433" y="-554.3" font-family="Times,serif" font-size="14.00">~</text>
</g>
<!-- 44&#45;&gt;53 -->
<g id="edge57" class="edge">
<title>44&#45;&gt;53</title>
<path fill="none" stroke="black" d="M433.5,-647.68C433.5,-647.68 433.5,-586.05 433.5,-586.05"/>
<polygon fill="black" stroke="black" points="437,-586.05 433.5,-576.05 430,-586.05 437,-586.05"/>
</g>
<!-- 54 -->
<g id="node65" class="node">
<title>54</title>
<polygon fill="#87ceeb" stroke="red" points="283,-576 247,-576 247,-540 283,-540 283,-576"/>
<text text-anchor="middle" x="265" y="-554.3" font-family="Times,serif" font-size="14.00">~</text>
</g>
<!-- 52&#45;&gt;54 -->
<g id="edge65" class="edge">
<title>52&#45;&gt;54</title>
<path fill="none" stroke="black" d="M182.15,-666C212.68,-666 271,-666 271,-666 271,-666 271,-586.32 271,-586.32"/>
<polygon fill="black" stroke="black" points="274.5,-586.32 271,-576.32 267.5,-586.32 274.5,-586.32"/>
</g>
<!-- 55 -->
<g id="node66" class="node">
<title>55</title>
<polygon fill="#87ceeb" stroke="black" points="285,-468 249,-468 249,-432 285,-432 285,-468"/>
<text text-anchor="middle" x="267" y="-446.3" font-family="Times,serif" font-size="14.00">&amp;</text>
</g>
<!-- 53&#45;&gt;55 -->
<g id="edge66" class="edge">
<title>53&#45;&gt;55</title>
<path fill="none" stroke="black" d="M414.75,-564C378.26,-564 299.75,-564 299.75,-564 299.75,-564 299.75,-450 299.75,-450 299.75,-450 295.29,-450 295.29,-450"/>
<polygon fill="black" stroke="black" points="295.29,-446.5 285.29,-450 295.29,-453.5 295.29,-446.5"/>
</g>
<!-- 53&#45;&gt;57 -->
<g id="edge67" class="edge">
<title>53&#45;&gt;57</title>
<path fill="none" stroke="black" d="M433,-539.68C433,-539.68 433,-478.05 433,-478.05"/>
<polygon fill="black" stroke="black" points="436.5,-478.05 433,-468.05 429.5,-478.05 436.5,-478.05"/>
</g>
<!-- 54&#45;&gt;55 -->
<g id="edge68" class="edge">
<title>54&#45;&gt;55</title>
<path fill="none" stroke="black" d="M266,-539.68C266,-539.68 266,-478.05 266,-478.05"/>
<polygon fill="black" stroke="black" points="269.5,-478.05 266,-468.05 262.5,-478.05 269.5,-478.05"/>
</g>
<!-- 54&#45;&gt;58 -->
<g id="edge69" class="edge">
<title>54&#45;&gt;58</title>
<path fill="none" stroke="black" d="M283.08,-552C306.58,-552 344.67,-552 344.67,-552 344.67,-552 344.67,-478.24 344.67,-478.24"/>
<polygon fill="black" stroke="black" points="348.17,-478.24 344.67,-468.24 341.17,-478.24 348.17,-478.24"/>
</g>
<!-- 5 -->
<g id="node73" class="node">
<title>5</title>
<polygon fill="#87ceeb" stroke="black" points="326,-36 290,-36 290,0 326,0 326,-36"/>
<text text-anchor="middle" x="308" y="-14.3" font-family="Times,serif" font-size="14.00">|</text>
</g>
<!-- 55&#45;&gt;5 -->
<g id="edge70" class="edge">
<title>55&#45;&gt;5</title>
<path fill="none" stroke="black" d="M267,-431.99C267,-350.23 267,-18 267,-18 267,-18 279.9,-18 279.9,-18"/>
<polygon fill="black" stroke="black" points="279.9,-21.5 289.9,-18 279.9,-14.5 279.9,-21.5"/>
</g>
<!-- 59 -->
<g id="node69" class="node">
<title>59</title>
<polygon fill="#87ceeb" stroke="red" points="448,-360 412,-360 412,-324 448,-324 448,-360"/>
<text text-anchor="middle" x="430" y="-338.3" font-family="Times,serif" font-size="14.00">~</text>
</g>
<!-- 57&#45;&gt;59 -->
<g id="edge73" class="edge">
<title>57&#45;&gt;59</title>
<path fill="none" stroke="black" d="M431.5,-431.68C431.5,-431.68 431.5,-370.05 431.5,-370.05"/>
<polygon fill="black" stroke="black" points="435,-370.05 431.5,-360.05 428,-370.05 435,-370.05"/>
</g>
<!-- 60 -->
<g id="node70" class="node">
<title>60</title>
<polygon fill="#87ceeb" stroke="red" points="368,-360 332,-360 332,-324 368,-324 368,-360"/>
<text text-anchor="middle" x="350" y="-338.3" font-family="Times,serif" font-size="14.00">~</text>
</g>
<!-- 58&#45;&gt;60 -->
<g id="edge74" class="edge">
<title>58&#45;&gt;60</title>
<path fill="none" stroke="black" d="M349,-431.68C349,-431.68 349,-370.05 349,-370.05"/>
<polygon fill="black" stroke="black" points="352.5,-370.05 349,-360.05 345.5,-370.05 352.5,-370.05"/>
</g>
<!-- 61 -->
<g id="node71" class="node">
<title>61</title>
<polygon fill="#87ceeb" stroke="black" points="368,-252 332,-252 332,-216 368,-216 368,-252"/>
<text text-anchor="middle" x="350" y="-230.3" font-family="Times,serif" font-size="14.00">&amp;</text>
</g>
<!-- 59&#45;&gt;61 -->
<g id="edge75" class="edge">
<title>59&#45;&gt;61</title>
<path fill="none" stroke="black" d="M430,-323.68C430,-292.87 430,-234 430,-234 430,-234 378.15,-234 378.15,-234"/>
<polygon fill="black" stroke="black" points="378.15,-230.5 368.15,-234 378.15,-237.5 378.15,-230.5"/>
</g>
<!-- 60&#45;&gt;61 -->
<g id="edge76" class="edge">
<title>60&#45;&gt;61</title>
<path fill="none" stroke="black" d="M350,-323.68C350,-323.68 350,-262.05 350,-262.05"/>
<polygon fill="black" stroke="black" points="353.5,-262.05 350,-252.05 346.5,-262.05 353.5,-262.05"/>
</g>
<!-- 62 -->
<g id="node72" class="node">
<title>62</title>
<polygon fill="#87ceeb" stroke="red" points="368,-144 332,-144 332,-108 368,-108 368,-144"/>
<text text-anchor="middle" x="350" y="-122.3" font-family="Times,serif" font-size="14.00">~</text>
</g>
<!-- 61&#45;&gt;62 -->
<g id="edge77" class="edge">
<title>61&#45;&gt;62</title>
<path fill="none" stroke="black" d="M350,-215.68C350,-215.68 350,-154.05 350,-154.05"/>
<polygon fill="black" stroke="black" points="353.5,-154.05 350,-144.05 346.5,-154.05 353.5,-154.05"/>
</g>
<!-- 62&#45;&gt;5 -->
<g id="edge78" class="edge">
<title>62&#45;&gt;5</title>
<path fill="none" stroke="black" d="M331.71,-126C324.21,-126 317.25,-126 317.25,-126 317.25,-126 317.25,-46.32 317.25,-46.32"/>
<polygon fill="black" stroke="black" points="320.75,-46.32 317.25,-36.32 313.75,-46.32 320.75,-46.32"/>
</g>
</g>
</svg>
