<?xml version="1.0" encoding="UTF-8" standalone="no"?>
<!DOCTYPE svg PUBLIC "-//W3C//DTD SVG 1.1//EN"
 "http://www.w3.org/Graphics/SVG/1.1/DTD/svg11.dtd">
<!-- Generated by graphviz version 2.43.0 (0)
 -->
<!-- Title: G Pages: 1 -->
<svg width="1117pt" height="1124pt"
 viewBox="0.00 0.00 1117.00 1124.00" xmlns="http://www.w3.org/2000/svg" xmlns:xlink="http://www.w3.org/1999/xlink">
<g id="graph0" class="graph" transform="scale(1 1) rotate(0) translate(4 1120)">
<title>G</title>
<polygon fill="white" stroke="transparent" points="-4,4 -4,-1120 1113,-1120 1113,4 -4,4"/>
<!-- 0 -->
<g id="node1" class="node">
<title>0</title>
<polygon fill="#87ceeb" stroke="black" points="1105,-1116 1069,-1116 1069,-1080 1105,-1080 1105,-1116"/>
<text text-anchor="middle" x="1087" y="-1094.3" font-family="Times,serif" font-size="14.00">I0</text>
</g>
<!-- 8 -->
<g id="node12" class="node">
<title>8</title>
<polygon fill="#87ceeb" stroke="black" points="1064,-900 1028,-900 1028,-864 1064,-864 1064,-900"/>
<text text-anchor="middle" x="1046" y="-878.3" font-family="Times,serif" font-size="14.00">&amp;</text>
</g>
<!-- 0&#45;&gt;8 -->
<g id="edge1" class="edge">
<title>0&#45;&gt;8</title>
<path fill="none" stroke="black" d="M1068.68,-1098C1060.21,-1098 1052,-1098 1052,-1098 1052,-1098 1052,-910.04 1052,-910.04"/>
<polygon fill="black" stroke="black" points="1055.5,-910.04 1052,-900.04 1048.5,-910.04 1055.5,-910.04"/>
</g>
<!-- 10 -->
<g id="node20" class="node">
<title>10</title>
<polygon fill="#87ceeb" stroke="black" points="1109,-792 1073,-792 1073,-756 1109,-756 1109,-792"/>
<text text-anchor="middle" x="1091" y="-770.3" font-family="Times,serif" font-size="14.00">&amp;</text>
</g>
<!-- 0&#45;&gt;10 -->
<g id="edge2" class="edge">
<title>0&#45;&gt;10</title>
<path fill="none" stroke="black" d="M1089,-1079.65C1089,-1079.65 1089,-802.15 1089,-802.15"/>
<polygon fill="black" stroke="black" points="1092.5,-802.15 1089,-792.15 1085.5,-802.15 1092.5,-802.15"/>
</g>
<!-- 1 -->
<g id="node2" class="node">
<title>1</title>
<polygon fill="#87ceeb" stroke="black" points="811,-1116 775,-1116 775,-1080 811,-1080 811,-1116"/>
<text text-anchor="middle" x="793" y="-1094.3" font-family="Times,serif" font-size="14.00">I1</text>
</g>
<!-- 13 -->
<g id="node7" class="node">
<title>13</title>
<polygon fill="#87ceeb" stroke="red" points="811,-1008 775,-1008 775,-972 811,-972 811,-1008"/>
<text text-anchor="middle" x="793" y="-986.3" font-family="Times,serif" font-size="14.00">~</text>
</g>
<!-- 1&#45;&gt;13 -->
<g id="edge3" class="edge">
<title>1&#45;&gt;13</title>
<path fill="none" stroke="black" d="M793,-1079.68C793,-1079.68 793,-1018.05 793,-1018.05"/>
<polygon fill="black" stroke="black" points="796.5,-1018.05 793,-1008.05 789.5,-1018.05 796.5,-1018.05"/>
</g>
<!-- 2 -->
<g id="node3" class="node">
<title>2</title>
<polygon fill="#87ceeb" stroke="black" points="36,-1116 0,-1116 0,-1080 36,-1080 36,-1116"/>
<text text-anchor="middle" x="18" y="-1094.3" font-family="Times,serif" font-size="14.00">I2</text>
</g>
<!-- 25 -->
<g id="node27" class="node">
<title>25</title>
<polygon fill="#87ceeb" stroke="black" points="163,-792 127,-792 127,-756 163,-756 163,-792"/>
<text text-anchor="middle" x="145" y="-770.3" font-family="Times,serif" font-size="14.00">&amp;</text>
</g>
<!-- 2&#45;&gt;25 -->
<g id="edge4" class="edge">
<title>2&#45;&gt;25</title>
<path fill="none" stroke="black" d="M36.13,-1104C61.76,-1104 105.5,-1104 105.5,-1104 105.5,-1104 105.5,-774 105.5,-774 105.5,-774 116.64,-774 116.64,-774"/>
<polygon fill="black" stroke="black" points="116.64,-777.5 126.64,-774 116.64,-770.5 116.64,-777.5"/>
</g>
<!-- 26 -->
<g id="node28" class="node">
<title>26</title>
<polygon fill="#87ceeb" stroke="black" points="84,-792 48,-792 48,-756 84,-756 84,-792"/>
<text text-anchor="middle" x="66" y="-770.3" font-family="Times,serif" font-size="14.00">&amp;</text>
</g>
<!-- 2&#45;&gt;26 -->
<g id="edge5" class="edge">
<title>2&#45;&gt;26</title>
<path fill="none" stroke="black" d="M18,-1079.65C18,-1011.11 18,-774 18,-774 18,-774 37.85,-774 37.85,-774"/>
<polygon fill="black" stroke="black" points="37.85,-777.5 47.85,-774 37.85,-770.5 37.85,-777.5"/>
</g>
<!-- 3 -->
<g id="node4" class="node">
<title>3</title>
<polygon fill="#87ceeb" stroke="black" points="418,-1116 382,-1116 382,-1080 418,-1080 418,-1116"/>
<text text-anchor="middle" x="400" y="-1094.3" font-family="Times,serif" font-size="14.00">I3</text>
</g>
<!-- 22 -->
<g id="node26" class="node">
<title>22</title>
<polygon fill="#87ceeb" stroke="black" points="321,-792 285,-792 285,-756 321,-756 321,-792"/>
<text text-anchor="middle" x="303" y="-770.3" font-family="Times,serif" font-size="14.00">&amp;</text>
</g>
<!-- 3&#45;&gt;22 -->
<g id="edge7" class="edge">
<title>3&#45;&gt;22</title>
<path fill="none" stroke="black" d="M381.59,-1092C351.96,-1092 297,-1092 297,-1092 297,-1092 297,-802.01 297,-802.01"/>
<polygon fill="black" stroke="black" points="300.5,-802.01 297,-792.01 293.5,-802.01 300.5,-802.01"/>
</g>
<!-- 21 -->
<g id="node32" class="node">
<title>21</title>
<polygon fill="#87ceeb" stroke="black" points="491,-684 455,-684 455,-648 491,-648 491,-684"/>
<text text-anchor="middle" x="473" y="-662.3" font-family="Times,serif" font-size="14.00">&amp;</text>
</g>
<!-- 3&#45;&gt;21 -->
<g id="edge6" class="edge">
<title>3&#45;&gt;21</title>
<path fill="none" stroke="black" d="M414.5,-1079.99C414.5,-998.23 414.5,-666 414.5,-666 414.5,-666 444.81,-666 444.81,-666"/>
<polygon fill="black" stroke="black" points="444.81,-669.5 454.81,-666 444.81,-662.5 444.81,-669.5"/>
</g>
<!-- 4 -->
<g id="node5" class="node">
<title>4</title>
<polygon fill="#87ceeb" stroke="black" points="647,-1116 611,-1116 611,-1080 647,-1080 647,-1116"/>
<text text-anchor="middle" x="629" y="-1094.3" font-family="Times,serif" font-size="14.00">I4</text>
</g>
<!-- 38 -->
<g id="node8" class="node">
<title>38</title>
<polygon fill="#87ceeb" stroke="green" points="574,-1008 538,-1008 538,-972 574,-972 574,-1008"/>
<text text-anchor="middle" x="556" y="-986.3" font-family="Times,serif" font-size="14.00">F</text>
</g>
<!-- 4&#45;&gt;38 -->
<g id="edge8" class="edge">
<title>4&#45;&gt;38</title>
<path fill="none" stroke="black" d="M610.96,-1098C589.34,-1098 556,-1098 556,-1098 556,-1098 556,-1018.32 556,-1018.32"/>
<polygon fill="black" stroke="black" points="559.5,-1018.32 556,-1008.32 552.5,-1018.32 559.5,-1018.32"/>
</g>
<!-- 39 -->
<g id="node9" class="node">
<title>39</title>
<polygon fill="#87ceeb" stroke="green" points="906,-1008 870,-1008 870,-972 906,-972 906,-1008"/>
<text text-anchor="middle" x="888" y="-986.3" font-family="Times,serif" font-size="14.00">F</text>
</g>
<!-- 4&#45;&gt;39 -->
<g id="edge9" class="edge">
<title>4&#45;&gt;39</title>
<path fill="none" stroke="black" d="M637,-1079.94C637,-1068.56 637,-1056 637,-1056 637,-1056 888,-1056 888,-1056 888,-1056 888,-1018.03 888,-1018.03"/>
<polygon fill="black" stroke="black" points="891.5,-1018.03 888,-1008.03 884.5,-1018.03 891.5,-1018.03"/>
</g>
<!-- 5 -->
<g id="node6" class="node">
<title>5</title>
<polygon fill="#87ceeb" stroke="black" points="521,-1116 485,-1116 485,-1080 521,-1080 521,-1116"/>
<text text-anchor="middle" x="503" y="-1094.3" font-family="Times,serif" font-size="14.00">I5</text>
</g>
<!-- 43 -->
<g id="node10" class="node">
<title>43</title>
<polygon fill="#87ceeb" stroke="green" points="408,-1008 372,-1008 372,-972 408,-972 408,-1008"/>
<text text-anchor="middle" x="390" y="-986.3" font-family="Times,serif" font-size="14.00">F</text>
</g>
<!-- 5&#45;&gt;43 -->
<g id="edge10" class="edge">
<title>5&#45;&gt;43</title>
<path fill="none" stroke="black" d="M511,-1079.68C511,-1048.87 511,-990 511,-990 511,-990 418.11,-990 418.11,-990"/>
<polygon fill="black" stroke="black" points="418.11,-986.5 408.11,-990 418.11,-993.5 418.11,-986.5"/>
</g>
<!-- 44 -->
<g id="node11" class="node">
<title>44</title>
<polygon fill="#87ceeb" stroke="green" points="653,-1008 617,-1008 617,-972 653,-972 653,-1008"/>
<text text-anchor="middle" x="635" y="-986.3" font-family="Times,serif" font-size="14.00">F</text>
</g>
<!-- 5&#45;&gt;44 -->
<g id="edge11" class="edge">
<title>5&#45;&gt;44</title>
<path fill="none" stroke="black" d="M501,-1079.97C501,-1060.42 501,-1032 501,-1032 501,-1032 627,-1032 627,-1032 627,-1032 627,-1018.06 627,-1018.06"/>
<polygon fill="black" stroke="black" points="630.5,-1018.06 627,-1008.06 623.5,-1018.06 630.5,-1018.06"/>
</g>
<!-- 14 -->
<g id="node22" class="node">
<title>14</title>
<polygon fill="#87ceeb" stroke="black" points="823,-792 787,-792 787,-756 823,-756 823,-792"/>
<text text-anchor="middle" x="805" y="-770.3" font-family="Times,serif" font-size="14.00">&amp;</text>
</g>
<!-- 13&#45;&gt;14 -->
<g id="edge19" class="edge">
<title>13&#45;&gt;14</title>
<path fill="none" stroke="black" d="M799,-971.96C799,-971.96 799,-802.15 799,-802.15"/>
<polygon fill="black" stroke="black" points="802.5,-802.15 799,-792.15 795.5,-802.15 802.5,-802.15"/>
</g>
<!-- 15 -->
<g id="node23" class="node">
<title>15</title>
<polygon fill="#87ceeb" stroke="black" points="732,-792 696,-792 696,-756 732,-756 732,-792"/>
<text text-anchor="middle" x="714" y="-770.3" font-family="Times,serif" font-size="14.00">&amp;</text>
</g>
<!-- 13&#45;&gt;15 -->
<g id="edge20" class="edge">
<title>13&#45;&gt;15</title>
<path fill="none" stroke="black" d="M781,-971.96C781,-920.04 781,-774 781,-774 781,-774 742.31,-774 742.31,-774"/>
<polygon fill="black" stroke="black" points="742.31,-770.5 732.31,-774 742.31,-777.5 742.31,-770.5"/>
</g>
<!-- 35 -->
<g id="node14" class="node">
<title>35</title>
<polygon fill="#87ceeb" stroke="green" points="242,-900 206,-900 206,-864 242,-864 242,-900"/>
<text text-anchor="middle" x="224" y="-878.3" font-family="Times,serif" font-size="14.00">F</text>
</g>
<!-- 38&#45;&gt;35 -->
<g id="edge52" class="edge">
<title>38&#45;&gt;35</title>
<path fill="none" stroke="black" d="M550,-971.97C550,-952.42 550,-924 550,-924 550,-924 224,-924 224,-924 224,-924 224,-910.06 224,-910.06"/>
<polygon fill="black" stroke="black" points="227.5,-910.06 224,-900.06 220.5,-910.06 227.5,-910.06"/>
</g>
<!-- 36 -->
<g id="node15" class="node">
<title>36</title>
<polygon fill="#87ceeb" stroke="green" points="574,-900 538,-900 538,-864 574,-864 574,-900"/>
<text text-anchor="middle" x="556" y="-878.3" font-family="Times,serif" font-size="14.00">F</text>
</g>
<!-- 38&#45;&gt;36 -->
<g id="edge53" class="edge">
<title>38&#45;&gt;36</title>
<path fill="none" stroke="black" d="M562,-971.68C562,-971.68 562,-910.05 562,-910.05"/>
<polygon fill="black" stroke="black" points="565.5,-910.05 562,-900.05 558.5,-910.05 565.5,-910.05"/>
</g>
<!-- 39&#45;&gt;8 -->
<g id="edge55" class="edge">
<title>39&#45;&gt;8</title>
<path fill="none" stroke="black" d="M906.03,-990C946.3,-990 1040,-990 1040,-990 1040,-990 1040,-910.32 1040,-910.32"/>
<polygon fill="black" stroke="black" points="1043.5,-910.32 1040,-900.32 1036.5,-910.32 1043.5,-910.32"/>
</g>
<!-- 37 -->
<g id="node16" class="node">
<title>37</title>
<polygon fill="#87ceeb" stroke="green" points="906,-900 870,-900 870,-864 906,-864 906,-900"/>
<text text-anchor="middle" x="888" y="-878.3" font-family="Times,serif" font-size="14.00">F</text>
</g>
<!-- 39&#45;&gt;37 -->
<g id="edge54" class="edge">
<title>39&#45;&gt;37</title>
<path fill="none" stroke="black" d="M888,-971.68C888,-971.68 888,-910.05 888,-910.05"/>
<polygon fill="black" stroke="black" points="891.5,-910.05 888,-900.05 884.5,-910.05 891.5,-910.05"/>
</g>
<!-- 40 -->
<g id="node17" class="node">
<title>40</title>
<polygon fill="#87ceeb" stroke="green" points="163,-900 127,-900 127,-864 163,-864 163,-900"/>
<text text-anchor="middle" x="145" y="-878.3" font-family="Times,serif" font-size="14.00">F</text>
</g>
<!-- 43&#45;&gt;40 -->
<g id="edge62" class="edge">
<title>43&#45;&gt;40</title>
<path fill="none" stroke="black" d="M371.98,-990C315.4,-990 145,-990 145,-990 145,-990 145,-910.32 145,-910.32"/>
<polygon fill="black" stroke="black" points="148.5,-910.32 145,-900.32 141.5,-910.32 148.5,-910.32"/>
</g>
<!-- 41 -->
<g id="node18" class="node">
<title>41</title>
<polygon fill="#87ceeb" stroke="green" points="408,-900 372,-900 372,-864 408,-864 408,-900"/>
<text text-anchor="middle" x="390" y="-878.3" font-family="Times,serif" font-size="14.00">F</text>
</g>
<!-- 43&#45;&gt;41 -->
<g id="edge63" class="edge">
<title>43&#45;&gt;41</title>
<path fill="none" stroke="black" d="M390,-971.68C390,-971.68 390,-910.05 390,-910.05"/>
<polygon fill="black" stroke="black" points="393.5,-910.05 390,-900.05 386.5,-910.05 393.5,-910.05"/>
</g>
<!-- 9 -->
<g id="node13" class="node">
<title>9</title>
<polygon fill="#87ceeb" stroke="red" points="985,-900 949,-900 949,-864 985,-864 985,-900"/>
<text text-anchor="middle" x="967" y="-878.3" font-family="Times,serif" font-size="14.00">~</text>
</g>
<!-- 44&#45;&gt;9 -->
<g id="edge65" class="edge">
<title>44&#45;&gt;9</title>
<path fill="none" stroke="black" d="M641,-971.94C641,-960.56 641,-948 641,-948 641,-948 967,-948 967,-948 967,-948 967,-910.03 967,-910.03"/>
<polygon fill="black" stroke="black" points="970.5,-910.03 967,-900.03 963.5,-910.03 970.5,-910.03"/>
</g>
<!-- 42 -->
<g id="node19" class="node">
<title>42</title>
<polygon fill="#87ceeb" stroke="green" points="653,-900 617,-900 617,-864 653,-864 653,-900"/>
<text text-anchor="middle" x="635" y="-878.3" font-family="Times,serif" font-size="14.00">F</text>
</g>
<!-- 44&#45;&gt;42 -->
<g id="edge64" class="edge">
<title>44&#45;&gt;42</title>
<path fill="none" stroke="black" d="M629,-971.68C629,-971.68 629,-910.05 629,-910.05"/>
<polygon fill="black" stroke="black" points="632.5,-910.05 629,-900.05 625.5,-910.05 632.5,-910.05"/>
</g>
<!-- 7 -->
<g id="node30" class="node">
<title>7</title>
<polygon fill="#87ceeb" stroke="black" points="984,-684 948,-684 948,-648 984,-648 984,-684"/>
<text text-anchor="middle" x="966" y="-662.3" font-family="Times,serif" font-size="14.00">M</text>
</g>
<!-- 8&#45;&gt;7 -->
<g id="edge13" class="edge">
<title>8&#45;&gt;7</title>
<path fill="none" stroke="black" d="M1046,-863.96C1046,-812.04 1046,-666 1046,-666 1046,-666 994.15,-666 994.15,-666"/>
<polygon fill="black" stroke="black" points="994.15,-662.5 984.15,-666 994.15,-669.5 994.15,-662.5"/>
</g>
<!-- 9&#45;&gt;10 -->
<g id="edge14" class="edge">
<title>9&#45;&gt;10</title>
<path fill="none" stroke="black" d="M977,-863.57C977,-835.18 977,-784 977,-784 977,-784 1062.94,-784 1062.94,-784"/>
<polygon fill="black" stroke="black" points="1062.94,-787.5 1072.94,-784 1062.94,-780.5 1062.94,-787.5"/>
</g>
<!-- 11 -->
<g id="node21" class="node">
<title>11</title>
<polygon fill="#87ceeb" stroke="black" points="943,-792 907,-792 907,-756 943,-756 943,-792"/>
<text text-anchor="middle" x="925" y="-770.3" font-family="Times,serif" font-size="14.00">&amp;</text>
</g>
<!-- 9&#45;&gt;11 -->
<g id="edge15" class="edge">
<title>9&#45;&gt;11</title>
<path fill="none" stroke="black" d="M956,-863.71C956,-833.63 956,-777 956,-777 956,-777 953.03,-777 953.03,-777"/>
<polygon fill="black" stroke="black" points="953.03,-773.5 943.03,-777 953.03,-780.5 953.03,-773.5"/>
</g>
<!-- 35&#45;&gt;25 -->
<g id="edge47" class="edge">
<title>35&#45;&gt;25</title>
<path fill="none" stroke="black" d="M224,-863.97C224,-844.42 224,-816 224,-816 224,-816 151,-816 151,-816 151,-816 151,-802.06 151,-802.06"/>
<polygon fill="black" stroke="black" points="154.5,-802.06 151,-792.06 147.5,-802.06 154.5,-802.06"/>
</g>
<!-- 27 -->
<g id="node29" class="node">
<title>27</title>
<polygon fill="#87ceeb" stroke="black" points="242,-792 206,-792 206,-756 242,-756 242,-792"/>
<text text-anchor="middle" x="224" y="-770.3" font-family="Times,serif" font-size="14.00">&amp;</text>
</g>
<!-- 35&#45;&gt;27 -->
<g id="edge46" class="edge">
<title>35&#45;&gt;27</title>
<path fill="none" stroke="black" d="M233,-863.68C233,-863.68 233,-802.05 233,-802.05"/>
<polygon fill="black" stroke="black" points="236.5,-802.05 233,-792.05 229.5,-802.05 236.5,-802.05"/>
</g>
<!-- 16 -->
<g id="node24" class="node">
<title>16</title>
<polygon fill="#87ceeb" stroke="black" points="653,-792 617,-792 617,-756 653,-756 653,-792"/>
<text text-anchor="middle" x="635" y="-770.3" font-family="Times,serif" font-size="14.00">&amp;</text>
</g>
<!-- 36&#45;&gt;16 -->
<g id="edge49" class="edge">
<title>36&#45;&gt;16</title>
<path fill="none" stroke="black" d="M574.34,-882C585.91,-882 598.67,-882 598.67,-882 598.67,-882 598.67,-774 598.67,-774 598.67,-774 606.83,-774 606.83,-774"/>
<polygon fill="black" stroke="black" points="606.83,-777.5 616.83,-774 606.83,-770.5 606.83,-777.5"/>
</g>
<!-- 20 -->
<g id="node25" class="node">
<title>20</title>
<polygon fill="#87ceeb" stroke="red" points="574,-792 538,-792 538,-756 574,-756 574,-792"/>
<text text-anchor="middle" x="556" y="-770.3" font-family="Times,serif" font-size="14.00">~</text>
</g>
<!-- 36&#45;&gt;20 -->
<g id="edge48" class="edge">
<title>36&#45;&gt;20</title>
<path fill="none" stroke="black" d="M556,-863.68C556,-863.68 556,-802.05 556,-802.05"/>
<polygon fill="black" stroke="black" points="559.5,-802.05 556,-792.05 552.5,-802.05 559.5,-802.05"/>
</g>
<!-- 37&#45;&gt;11 -->
<g id="edge51" class="edge">
<title>37&#45;&gt;11</title>
<path fill="none" stroke="black" d="M906.07,-882C915.46,-882 925,-882 925,-882 925,-882 925,-802.32 925,-802.32"/>
<polygon fill="black" stroke="black" points="928.5,-802.32 925,-792.32 921.5,-802.32 928.5,-802.32"/>
</g>
<!-- 37&#45;&gt;14 -->
<g id="edge50" class="edge">
<title>37&#45;&gt;14</title>
<path fill="none" stroke="black" d="M869.72,-888C848.68,-888 817,-888 817,-888 817,-888 817,-802.06 817,-802.06"/>
<polygon fill="black" stroke="black" points="820.5,-802.06 817,-792.06 813.5,-802.06 820.5,-802.06"/>
</g>
<!-- 40&#45;&gt;26 -->
<g id="edge57" class="edge">
<title>40&#45;&gt;26</title>
<path fill="none" stroke="black" d="M126.68,-882C103.34,-882 66,-882 66,-882 66,-882 66,-802.32 66,-802.32"/>
<polygon fill="black" stroke="black" points="69.5,-802.32 66,-792.32 62.5,-802.32 69.5,-802.32"/>
</g>
<!-- 40&#45;&gt;27 -->
<g id="edge56" class="edge">
<title>40&#45;&gt;27</title>
<path fill="none" stroke="black" d="M139,-863.94C139,-852.56 139,-840 139,-840 139,-840 215,-840 215,-840 215,-840 215,-802.03 215,-802.03"/>
<polygon fill="black" stroke="black" points="218.5,-802.03 215,-792.03 211.5,-802.03 218.5,-802.03"/>
</g>
<!-- 41&#45;&gt;22 -->
<g id="edge59" class="edge">
<title>41&#45;&gt;22</title>
<path fill="none" stroke="black" d="M371.62,-882C347.72,-882 309,-882 309,-882 309,-882 309,-802.32 309,-802.32"/>
<polygon fill="black" stroke="black" points="312.5,-802.32 309,-792.32 305.5,-802.32 312.5,-802.32"/>
</g>
<!-- 23 -->
<g id="node33" class="node">
<title>23</title>
<polygon fill="#87ceeb" stroke="black" points="411,-684 375,-684 375,-648 411,-648 411,-684"/>
<text text-anchor="middle" x="393" y="-662.3" font-family="Times,serif" font-size="14.00">&amp;</text>
</g>
<!-- 41&#45;&gt;23 -->
<g id="edge58" class="edge">
<title>41&#45;&gt;23</title>
<path fill="none" stroke="black" d="M386,-863.96C386,-863.96 386,-694.15 386,-694.15"/>
<polygon fill="black" stroke="black" points="389.5,-694.15 386,-684.15 382.5,-694.15 389.5,-694.15"/>
</g>
<!-- 42&#45;&gt;15 -->
<g id="edge61" class="edge">
<title>42&#45;&gt;15</title>
<path fill="none" stroke="black" d="M653.32,-876C676.66,-876 714,-876 714,-876 714,-876 714,-802.24 714,-802.24"/>
<polygon fill="black" stroke="black" points="717.5,-802.24 714,-792.24 710.5,-802.24 717.5,-802.24"/>
</g>
<!-- 42&#45;&gt;16 -->
<g id="edge60" class="edge">
<title>42&#45;&gt;16</title>
<path fill="none" stroke="black" d="M635,-863.68C635,-863.68 635,-802.05 635,-802.05"/>
<polygon fill="black" stroke="black" points="638.5,-802.05 635,-792.05 631.5,-802.05 638.5,-802.05"/>
</g>
<!-- 10&#45;&gt;7 -->
<g id="edge16" class="edge">
<title>10&#45;&gt;7</title>
<path fill="none" stroke="black" d="M1072.89,-770C1039.13,-770 970,-770 970,-770 970,-770 970,-694.12 970,-694.12"/>
<polygon fill="black" stroke="black" points="973.5,-694.12 970,-684.12 966.5,-694.12 973.5,-694.12"/>
</g>
<!-- 11&#45;&gt;7 -->
<g id="edge17" class="edge">
<title>11&#45;&gt;7</title>
<path fill="none" stroke="black" d="M943.11,-763C952.9,-763 963,-763 963,-763 963,-763 963,-694.24 963,-694.24"/>
<polygon fill="black" stroke="black" points="966.5,-694.24 963,-684.24 959.5,-694.24 966.5,-694.24"/>
</g>
<!-- 12 -->
<g id="node31" class="node">
<title>12</title>
<polygon fill="#87ceeb" stroke="black" points="732,-684 696,-684 696,-648 732,-648 732,-684"/>
<text text-anchor="middle" x="714" y="-662.3" font-family="Times,serif" font-size="14.00">M</text>
</g>
<!-- 14&#45;&gt;12 -->
<g id="edge21" class="edge">
<title>14&#45;&gt;12</title>
<path fill="none" stroke="black" d="M805,-755.68C805,-724.87 805,-666 805,-666 805,-666 742.42,-666 742.42,-666"/>
<polygon fill="black" stroke="black" points="742.42,-662.5 732.42,-666 742.42,-669.5 742.42,-662.5"/>
</g>
<!-- 15&#45;&gt;12 -->
<g id="edge22" class="edge">
<title>15&#45;&gt;12</title>
<path fill="none" stroke="black" d="M714,-755.68C714,-755.68 714,-694.05 714,-694.05"/>
<polygon fill="black" stroke="black" points="717.5,-694.05 714,-684.05 710.5,-694.05 717.5,-694.05"/>
</g>
<!-- 16&#45;&gt;12 -->
<g id="edge23" class="edge">
<title>16&#45;&gt;12</title>
<path fill="none" stroke="black" d="M641,-755.94C641,-723.79 641,-660 641,-660 641,-660 685.96,-660 685.96,-660"/>
<polygon fill="black" stroke="black" points="685.96,-663.5 695.96,-660 685.96,-656.5 685.96,-663.5"/>
</g>
<!-- 20&#45;&gt;21 -->
<g id="edge29" class="edge">
<title>20&#45;&gt;21</title>
<path fill="none" stroke="black" d="M554,-755.76C554,-726.43 554,-672 554,-672 554,-672 501.38,-672 501.38,-672"/>
<polygon fill="black" stroke="black" points="501.38,-668.5 491.38,-672 501.38,-675.5 501.38,-668.5"/>
</g>
<!-- 20&#45;&gt;23 -->
<g id="edge30" class="edge">
<title>20&#45;&gt;23</title>
<path fill="none" stroke="black" d="M537.76,-774C496,-774 397,-774 397,-774 397,-774 397,-694.32 397,-694.32"/>
<polygon fill="black" stroke="black" points="400.5,-694.32 397,-684.32 393.5,-694.32 400.5,-694.32"/>
</g>
<!-- 19 -->
<g id="node36" class="node">
<title>19</title>
<polygon fill="#87ceeb" stroke="black" points="411,-576 375,-576 375,-540 411,-540 411,-576"/>
<text text-anchor="middle" x="393" y="-554.3" font-family="Times,serif" font-size="14.00">M</text>
</g>
<!-- 22&#45;&gt;19 -->
<g id="edge32" class="edge">
<title>22&#45;&gt;19</title>
<path fill="none" stroke="black" d="M305,-755.96C305,-704.04 305,-558 305,-558 305,-558 364.77,-558 364.77,-558"/>
<polygon fill="black" stroke="black" points="364.77,-561.5 374.77,-558 364.77,-554.5 364.77,-561.5"/>
</g>
<!-- 24 -->
<g id="node34" class="node">
<title>24</title>
<polygon fill="#87ceeb" stroke="black" points="203,-684 167,-684 167,-648 203,-648 203,-684"/>
<text text-anchor="middle" x="185" y="-662.3" font-family="Times,serif" font-size="14.00">M</text>
</g>
<!-- 25&#45;&gt;24 -->
<g id="edge35" class="edge">
<title>25&#45;&gt;24</title>
<path fill="none" stroke="black" d="M145,-755.76C145,-726.43 145,-672 145,-672 145,-672 156.87,-672 156.87,-672"/>
<polygon fill="black" stroke="black" points="156.87,-675.5 166.87,-672 156.87,-668.5 156.87,-675.5"/>
</g>
<!-- 26&#45;&gt;24 -->
<g id="edge36" class="edge">
<title>26&#45;&gt;24</title>
<path fill="none" stroke="black" d="M66,-755.94C66,-723.79 66,-660 66,-660 66,-660 156.93,-660 156.93,-660"/>
<polygon fill="black" stroke="black" points="156.93,-663.5 166.93,-660 156.93,-656.5 156.93,-663.5"/>
</g>
<!-- 27&#45;&gt;24 -->
<g id="edge37" class="edge">
<title>27&#45;&gt;24</title>
<path fill="none" stroke="black" d="M224,-755.76C224,-726.43 224,-672 224,-672 224,-672 213.13,-672 213.13,-672"/>
<polygon fill="black" stroke="black" points="213.13,-668.5 203.13,-672 213.13,-675.5 213.13,-668.5"/>
</g>
<!-- 18 -->
<g id="node38" class="node">
<title>18</title>
<polygon fill="#87ceeb" stroke="black" points="732,-468 696,-468 696,-432 732,-432 732,-468"/>
<text text-anchor="middle" x="714" y="-446.3" font-family="Times,serif" font-size="14.00">&amp;</text>
</g>
<!-- 7&#45;&gt;18 -->
<g id="edge12" class="edge">
<title>7&#45;&gt;18</title>
<path fill="none" stroke="black" d="M966,-647.96C966,-596.04 966,-450 966,-450 966,-450 742.12,-450 742.12,-450"/>
<polygon fill="black" stroke="black" points="742.12,-446.5 732.12,-450 742.12,-453.5 742.12,-446.5"/>
</g>
<!-- 17 -->
<g id="node35" class="node">
<title>17</title>
<polygon fill="#87ceeb" stroke="red" points="732,-576 696,-576 696,-540 732,-540 732,-576"/>
<text text-anchor="middle" x="714" y="-554.3" font-family="Times,serif" font-size="14.00">~</text>
</g>
<!-- 12&#45;&gt;17 -->
<g id="edge18" class="edge">
<title>12&#45;&gt;17</title>
<path fill="none" stroke="black" d="M714,-647.68C714,-647.68 714,-586.05 714,-586.05"/>
<polygon fill="black" stroke="black" points="717.5,-586.05 714,-576.05 710.5,-586.05 717.5,-586.05"/>
</g>
<!-- 21&#45;&gt;19 -->
<g id="edge31" class="edge">
<title>21&#45;&gt;19</title>
<path fill="none" stroke="black" d="M466.33,-647.76C466.33,-618.43 466.33,-564 466.33,-564 466.33,-564 421.13,-564 421.13,-564"/>
<polygon fill="black" stroke="black" points="421.13,-560.5 411.13,-564 421.13,-567.5 421.13,-560.5"/>
</g>
<!-- 23&#45;&gt;19 -->
<g id="edge33" class="edge">
<title>23&#45;&gt;19</title>
<path fill="none" stroke="black" d="M393,-647.68C393,-647.68 393,-586.05 393,-586.05"/>
<polygon fill="black" stroke="black" points="396.5,-586.05 393,-576.05 389.5,-586.05 396.5,-586.05"/>
</g>
<!-- 28 -->
<g id="node37" class="node">
<title>28</title>
<polygon fill="#87ceeb" stroke="red" points="289,-576 253,-576 253,-540 289,-540 289,-576"/>
<text text-anchor="middle" x="271" y="-554.3" font-family="Times,serif" font-size="14.00">~</text>
</g>
<!-- 24&#45;&gt;28 -->
<g id="edge34" class="edge">
<title>24&#45;&gt;28</title>
<path fill="none" stroke="black" d="M203.23,-660C227.93,-660 269,-660 269,-660 269,-660 269,-586.24 269,-586.24"/>
<polygon fill="black" stroke="black" points="272.5,-586.24 269,-576.24 265.5,-586.24 272.5,-586.24"/>
</g>
<!-- 17&#45;&gt;18 -->
<g id="edge24" class="edge">
<title>17&#45;&gt;18</title>
<path fill="none" stroke="black" d="M714,-539.68C714,-539.68 714,-478.05 714,-478.05"/>
<polygon fill="black" stroke="black" points="717.5,-478.05 714,-468.05 710.5,-478.05 717.5,-478.05"/>
</g>
<!-- 29 -->
<g id="node39" class="node">
<title>29</title>
<polygon fill="#87ceeb" stroke="black" points="410,-468 374,-468 374,-432 410,-432 410,-468"/>
<text text-anchor="middle" x="392" y="-446.3" font-family="Times,serif" font-size="14.00">&amp;</text>
</g>
<!-- 19&#45;&gt;29 -->
<g id="edge27" class="edge">
<title>19&#45;&gt;29</title>
<path fill="none" stroke="black" d="M392.5,-539.68C392.5,-539.68 392.5,-478.05 392.5,-478.05"/>
<polygon fill="black" stroke="black" points="396,-478.05 392.5,-468.05 389,-478.05 396,-478.05"/>
</g>
<!-- 45 -->
<g id="node40" class="node">
<title>45</title>
<polygon fill="#87ceeb" stroke="green" points="489,-468 453,-468 453,-432 489,-432 489,-468"/>
<text text-anchor="middle" x="471" y="-446.3" font-family="Times,serif" font-size="14.00">F</text>
</g>
<!-- 19&#45;&gt;45 -->
<g id="edge28" class="edge">
<title>19&#45;&gt;45</title>
<path fill="none" stroke="black" d="M411.37,-552C436.27,-552 477.67,-552 477.67,-552 477.67,-552 477.67,-478.24 477.67,-478.24"/>
<polygon fill="black" stroke="black" points="481.17,-478.24 477.67,-468.24 474.17,-478.24 481.17,-478.24"/>
</g>
<!-- 28&#45;&gt;29 -->
<g id="edge38" class="edge">
<title>28&#45;&gt;29</title>
<path fill="none" stroke="black" d="M271,-539.68C271,-508.87 271,-450 271,-450 271,-450 363.89,-450 363.89,-450"/>
<polygon fill="black" stroke="black" points="363.89,-453.5 373.89,-450 363.89,-446.5 363.89,-453.5"/>
</g>
<!-- 31 -->
<g id="node41" class="node">
<title>31</title>
<polygon fill="#87ceeb" stroke="black" points="649,-360 613,-360 613,-324 649,-324 649,-360"/>
<text text-anchor="middle" x="631" y="-338.3" font-family="Times,serif" font-size="14.00">&amp;</text>
</g>
<!-- 18&#45;&gt;31 -->
<g id="edge25" class="edge">
<title>18&#45;&gt;31</title>
<path fill="none" stroke="black" d="M695.62,-444C671.72,-444 633,-444 633,-444 633,-444 633,-370.24 633,-370.24"/>
<polygon fill="black" stroke="black" points="636.5,-370.24 633,-360.24 629.5,-370.24 636.5,-370.24"/>
</g>
<!-- 33 -->
<g id="node43" class="node">
<title>33</title>
<polygon fill="#87ceeb" stroke="black" points="732,-252 696,-252 696,-216 732,-216 732,-252"/>
<text text-anchor="middle" x="714" y="-230.3" font-family="Times,serif" font-size="14.00">&amp;</text>
</g>
<!-- 18&#45;&gt;33 -->
<g id="edge26" class="edge">
<title>18&#45;&gt;33</title>
<path fill="none" stroke="black" d="M714,-431.96C714,-431.96 714,-262.15 714,-262.15"/>
<polygon fill="black" stroke="black" points="717.5,-262.15 714,-252.15 710.5,-262.15 717.5,-262.15"/>
</g>
<!-- 32 -->
<g id="node42" class="node">
<title>32</title>
<polygon fill="#87ceeb" stroke="red" points="570,-360 534,-360 534,-324 570,-324 570,-360"/>
<text text-anchor="middle" x="552" y="-338.3" font-family="Times,serif" font-size="14.00">~</text>
</g>
<!-- 29&#45;&gt;32 -->
<g id="edge39" class="edge">
<title>29&#45;&gt;32</title>
<path fill="none" stroke="black" d="M392,-431.68C392,-400.87 392,-342 392,-342 392,-342 523.96,-342 523.96,-342"/>
<polygon fill="black" stroke="black" points="523.96,-345.5 533.96,-342 523.96,-338.5 523.96,-345.5"/>
</g>
<!-- 45&#45;&gt;31 -->
<g id="edge67" class="edge">
<title>45&#45;&gt;31</title>
<path fill="none" stroke="black" d="M489.27,-456C530.06,-456 625,-456 625,-456 625,-456 625,-370.06 625,-370.06"/>
<polygon fill="black" stroke="black" points="628.5,-370.06 625,-360.06 621.5,-370.06 628.5,-370.06"/>
</g>
<!-- 34 -->
<g id="node44" class="node">
<title>34</title>
<polygon fill="#87ceeb" stroke="black" points="566,-252 530,-252 530,-216 566,-216 566,-252"/>
<text text-anchor="middle" x="548" y="-230.3" font-family="Times,serif" font-size="14.00">&amp;</text>
</g>
<!-- 45&#45;&gt;34 -->
<g id="edge66" class="edge">
<title>45&#45;&gt;34</title>
<path fill="none" stroke="black" d="M471,-431.96C471,-380.04 471,-234 471,-234 471,-234 519.75,-234 519.75,-234"/>
<polygon fill="black" stroke="black" points="519.75,-237.5 529.75,-234 519.75,-230.5 519.75,-237.5"/>
</g>
<!-- 30 -->
<g id="node45" class="node">
<title>30</title>
<polygon fill="#87ceeb" stroke="black" points="649,-144 613,-144 613,-108 649,-108 649,-144"/>
<text text-anchor="middle" x="631" y="-122.3" font-family="Times,serif" font-size="14.00">M</text>
</g>
<!-- 31&#45;&gt;30 -->
<g id="edge41" class="edge">
<title>31&#45;&gt;30</title>
<path fill="none" stroke="black" d="M631,-323.96C631,-323.96 631,-154.15 631,-154.15"/>
<polygon fill="black" stroke="black" points="634.5,-154.15 631,-144.15 627.5,-154.15 634.5,-154.15"/>
</g>
<!-- 32&#45;&gt;33 -->
<g id="edge42" class="edge">
<title>32&#45;&gt;33</title>
<path fill="none" stroke="black" d="M570.37,-342C578.54,-342 586.33,-342 586.33,-342 586.33,-342 586.33,-234 586.33,-234 586.33,-234 685.98,-234 685.98,-234"/>
<polygon fill="black" stroke="black" points="685.98,-237.5 695.98,-234 685.98,-230.5 685.98,-237.5"/>
</g>
<!-- 32&#45;&gt;34 -->
<g id="edge43" class="edge">
<title>32&#45;&gt;34</title>
<path fill="none" stroke="black" d="M550,-323.68C550,-323.68 550,-262.05 550,-262.05"/>
<polygon fill="black" stroke="black" points="553.5,-262.05 550,-252.05 546.5,-262.05 553.5,-262.05"/>
</g>
<!-- 33&#45;&gt;30 -->
<g id="edge44" class="edge">
<title>33&#45;&gt;30</title>
<path fill="none" stroke="black" d="M714,-215.68C714,-184.87 714,-126 714,-126 714,-126 659.01,-126 659.01,-126"/>
<polygon fill="black" stroke="black" points="659.01,-122.5 649.01,-126 659.01,-129.5 659.01,-122.5"/>
</g>
<!-- 34&#45;&gt;30 -->
<g id="edge45" class="edge">
<title>34&#45;&gt;30</title>
<path fill="none" stroke="black" d="M548,-215.68C548,-184.87 548,-126 548,-126 548,-126 602.99,-126 602.99,-126"/>
<polygon fill="black" stroke="black" points="602.99,-129.5 612.99,-126 602.99,-122.5 602.99,-129.5"/>
</g>
<!-- 6 -->
<g id="node46" class="node">
<title>6</title>
<polygon fill="#87ceeb" stroke="black" points="649,-36 613,-36 613,0 649,0 649,-36"/>
<text text-anchor="middle" x="631" y="-14.3" font-family="Times,serif" font-size="14.00">6</text>
</g>
<!-- 30&#45;&gt;6 -->
<g id="edge40" class="edge">
<title>30&#45;&gt;6</title>
<path fill="none" stroke="black" d="M631,-107.68C631,-107.68 631,-46.05 631,-46.05"/>
<polygon fill="black" stroke="black" points="634.5,-46.05 631,-36.05 627.5,-46.05 634.5,-46.05"/>
</g>
</g>
</svg>
